# Blender 5.0.1
# www.blender.org
mtllib treeC_graveyard1.mtl
o treeC_graveyard_Cylinder.004
v 0.046516 -0.000000 -0.321373
v 0.034807 0.191808 -0.206393
v 0.333806 -0.000000 -0.179993
v 0.171433 0.191808 -0.121910
v 0.338384 0.000000 0.025753
v 0.208046 0.191808 0.034386
v 0.248480 0.000000 0.306639
v 0.123668 0.191808 0.170389
v -0.046171 0.000000 0.359048
v -0.032003 0.191808 0.207100
v -0.264218 0.000000 0.257975
v -0.168558 0.191808 0.122724
v -0.356811 -0.000000 -0.038936
v -0.205268 0.191808 -0.033526
v -0.213006 -0.000000 -0.302030
v -0.120966 0.191808 -0.169604
v -0.225171 0.980807 -0.143958
v -0.317106 0.993107 -0.066415
v -0.317690 0.993562 0.050901
v 0.799358 2.186059 0.109509
v 0.805928 2.188207 0.121232
v 0.804439 2.183518 0.132935
v 0.795733 2.174753 0.137742
v -0.227962 0.982860 0.139053
v -0.099102 0.969309 0.146232
v 0.784977 2.166980 0.132791
v 0.778503 2.164740 0.121001
v 0.780035 2.169411 0.109324
v 0.788645 2.178268 0.104584
v 0.499552 2.272523 0.088202
v 0.455711 2.224545 0.132676
v -0.006089 0.960057 0.068741
v 0.451751 2.224758 0.204747
v 0.490126 2.274186 0.262304
v 0.549087 2.342603 0.271416
v -0.006321 0.958055 -0.048589
v 0.593967 2.388710 0.226637
v 0.597728 2.386820 0.154413
v 0.558316 2.339263 0.097161
v -0.097310 0.965931 -0.136810
v -0.445758 1.839946 -0.658140
v -0.456527 1.815912 -0.673100
v -0.461527 1.865088 -0.645323
v -0.495528 1.877152 -0.641738
v -0.527148 1.867821 -0.649468
v -0.537041 1.842120 -0.664403
v -0.519996 1.816288 -0.677810
v -0.486899 1.805915 -0.681412
v -0.234518 1.259165 0.061212
v -0.457239 1.469474 -0.374338
v -0.513406 1.681150 -0.555851
v -0.469646 1.667229 -0.560340
v -0.399001 1.459728 -0.382278
v -0.129206 1.232216 0.029779
v -0.142351 1.370796 0.020498
v -0.324510 1.542881 -0.364970
v -0.408004 1.701753 -0.537309
v -0.425438 1.730940 -0.524107
v -0.349633 1.589422 -0.350991
v -0.221221 1.448919 0.036321
v -0.306993 1.403672 0.064853
v -0.508441 1.603147 -0.338143
v -0.516286 1.740872 -0.526785
v -0.533433 1.712079 -0.541653
v -0.508494 1.533728 -0.354077
v -0.283117 1.317867 0.068912
v -0.426759 1.676291 -0.552367
v -0.358694 1.499745 -0.375254
v -0.099379 1.280964 0.014340
v -0.470739 1.748071 -0.519852
v -0.429512 1.619195 -0.339568
v -0.282091 1.458096 0.052556
v -0.557528 1.889504 -0.843309
v -0.557041 1.876387 -0.841438
v -0.565811 1.900489 -0.840760
v -0.577071 1.902909 -0.835287
v -0.584737 1.895318 -0.830123
v -0.584288 1.882160 -0.828289
v -0.575961 1.871172 -0.830833
v -0.564663 1.868792 -0.836269
v 0.155644 2.302239 -0.040454
v 0.096867 2.351106 0.019109
v 0.087145 2.347064 0.111895
v 0.130859 2.297122 0.182361
v 0.204204 2.232585 0.189798
v 0.264648 2.188528 0.130635
v 0.274838 2.189745 0.038098
v 0.229404 2.235062 -0.032552
v -0.147232 1.677471 -0.119335
v -0.085442 1.648432 -0.027629
v -0.104052 1.653623 0.079331
v -0.192365 1.689686 0.138886
v -0.297461 1.738243 0.116153
v -0.357465 1.771168 0.024451
v -0.338500 1.766426 -0.082505
v -0.252106 1.726488 -0.142064
v 0.098362 1.223154 0.555122
v 0.089741 1.205045 0.575920
v 0.123062 1.226168 0.533505
v 0.148773 1.213334 0.523724
v 0.162698 1.191528 0.530031
v 0.157303 1.171918 0.548549
v 0.133339 1.166980 0.570235
v 0.104525 1.181079 0.582071
v -0.129502 0.856975 0.055161
v 0.093878 0.960796 0.319890
v 0.090845 1.110091 0.496511
v 0.047094 1.128895 0.509928
v 0.036207 0.990806 0.342184
v -0.211497 0.903219 0.102987
v -0.215135 1.058699 0.068220
v 0.021774 1.089952 0.281769
v 0.036273 1.181675 0.446243
v 0.075428 1.182269 0.407211
v 0.070027 1.097414 0.237475
v -0.130877 1.076765 0.011107
v -0.039882 0.945474 -0.023703
v 0.152637 1.016398 0.234118
v 0.131032 1.136219 0.421087
v 0.123576 1.114330 0.461224
v 0.139563 0.973421 0.276212
v -0.063070 0.877018 0.004080
v 0.022777 1.159455 0.489783
v 0.006492 1.045660 0.326160
v -0.250952 0.987381 0.108619
v 0.112845 1.163403 0.397677
v 0.125649 1.065509 0.216947
v -0.065977 1.023010 -0.022152
v 0.264700 1.215508 0.661312
v 0.251693 1.203253 0.662920
v 0.280355 1.218545 0.653532
v 0.289836 1.211297 0.643867
v 0.288123 1.197323 0.637806
v 0.274777 1.185207 0.639796
v 0.258913 1.182202 0.647803
v 0.249913 1.189222 0.657040
v -0.416785 2.693123 -0.257673
v -0.411703 2.694946 -0.265535
v -0.412468 2.692378 -0.274808
v -0.418485 2.687613 -0.279867
v -0.426257 2.683422 -0.277758
v -0.431295 2.681890 -0.269792
v -0.430581 2.684180 -0.260579
v -0.424592 2.688676 -0.255618
v -0.274695 2.543663 -0.241245
v -0.303016 2.529701 -0.264396
v -0.304154 2.519234 -0.302083
v -0.280707 2.525269 -0.332425
v -0.242018 2.537479 -0.339505
v -0.209395 2.550149 -0.317777
v -0.206236 2.558052 -0.278064
v -0.233778 2.554544 -0.245932
v -0.179932 2.297608 -0.021614
v -0.115632 2.277155 -0.069211
v -0.115951 2.262710 -0.151018
v -0.178484 2.261997 -0.216690
v -0.262042 2.274602 -0.227149
v -0.320837 2.293746 -0.178998
v -0.325265 2.309088 -0.101444
v -0.268447 2.311067 -0.036463
v -0.283870 1.732761 0.105252
v -0.340322 1.746882 0.024525
v -0.325359 1.736758 -0.069742
v -0.247405 1.708205 -0.122054
v -0.151698 1.679330 -0.102043
v -0.094607 1.667240 -0.021319
v -0.109985 1.677544 0.072832
v -0.188513 1.704112 0.125261
vn 0.1568 -0.4213 -0.8933
vn 0.1754 0.3514 -0.9197
vn 0.8147 -0.3288 -0.4777
vn 0.7166 0.4463 -0.5360
vn 0.9032 -0.4204 0.0866
vn 0.8833 0.4542 0.1157
vn 0.6017 -0.3261 0.7291
vn 0.5101 0.4740 0.7178
vn -0.1080 -0.3754 0.9206
vn -0.1142 0.3863 0.9153
vn -0.6931 -0.3599 0.6246
vn -0.7687 0.3196 0.5540
vn -0.9236 -0.3716 -0.0944
vn -0.9408 0.2954 -0.1662
vn -0.5063 -0.3467 -0.7896
vn -0.5111 0.3431 -0.7881
vn -0.3347 -0.0249 -0.9420
vn -0.9049 -0.0824 -0.4177
vn -0.9262 -0.0765 0.3693
vn 0.7403 -0.0387 -0.6712
vn 0.9818 0.0913 -0.1667
vn 0.9172 -0.1456 0.3710
vn 0.5875 -0.5922 0.5516
vn -0.4179 -0.0152 0.9084
vn 0.3096 0.0949 0.9461
vn 0.2844 -0.9017 0.3256
vn 0.1584 -0.9823 -0.0999
vn 0.2012 -0.7797 -0.5930
vn 0.4247 -0.3840 -0.8199
vn 0.1790 -0.3734 -0.9102
vn 0.1067 -0.9522 -0.2862
vn 0.8901 0.1876 0.4153
vn -0.0203 -0.9061 0.4225
vn -0.0374 -0.3905 0.9198
vn 0.1112 0.2913 0.9501
vn 0.9002 0.1841 -0.3946
vn 0.3545 0.8075 0.4714
vn 0.3524 0.8790 -0.3212
vn 0.2198 0.4312 -0.8751
vn 0.3938 0.0920 -0.9146
vn 0.9341 0.2833 -0.2172
vn 0.7197 -0.3542 -0.5971
vn 0.6186 0.7568 0.2109
vn 0.0258 0.8995 0.4361
vn -0.6596 0.6117 0.4368
vn -0.9841 -0.1097 0.1395
vn -0.6342 -0.7019 -0.3242
vn 0.0911 -0.7842 -0.6138
vn -0.5016 -0.8494 -0.1643
vn -0.5435 -0.7623 -0.3515
vn -0.6187 -0.5694 -0.5413
vn -0.0050 -0.6597 -0.7515
vn 0.1577 -0.7453 -0.6478
vn 0.1405 -0.8249 -0.5475
vn 0.8244 0.5163 -0.2319
vn 0.9134 0.0163 -0.4067
vn 0.9551 0.1163 -0.2724
vn 0.6554 0.6539 0.3778
vn 0.6858 0.7130 0.1461
vn 0.5212 0.8460 0.1123
vn -0.8839 0.0179 0.4673
vn -0.7676 0.4415 0.4647
vn -0.6135 0.5736 0.5428
vn -0.9986 -0.0499 -0.0178
vn -0.9326 -0.3583 0.0435
vn -0.8320 -0.5262 0.1756
vn 0.5453 -0.4715 -0.6931
vn 0.6340 -0.4227 -0.6475
vn 0.7486 -0.2324 -0.6210
vn 0.0620 0.7584 0.6488
vn 0.0961 0.8784 0.4682
vn -0.2852 0.8190 0.4980
vn 0.3553 0.2118 -0.9104
vn 0.2868 -0.3399 -0.8957
vn 0.0806 0.6442 -0.7606
vn -0.4493 0.7446 -0.4936
vn -0.9017 0.3145 -0.2967
vn -0.9045 -0.2633 -0.3355
vn -0.6285 -0.6102 -0.4823
vn -0.1597 -0.6946 -0.7015
vn 0.0073 0.4853 -0.8743
vn -0.3869 0.8358 -0.3896
vn -0.5071 0.7985 0.3244
vn -0.3305 0.3842 0.8621
vn -0.0085 -0.3152 0.9490
vn 0.3856 -0.8242 0.4147
vn 0.5852 -0.7060 -0.3989
vn 0.4176 -0.0639 -0.9064
vn 0.4759 -0.0627 -0.8773
vn 0.9442 -0.1938 -0.2662
vn 0.7787 -0.1968 0.5957
vn 0.0820 -0.0600 0.9948
vn -0.5839 0.1347 0.8005
vn -0.9380 0.2890 0.1913
vn -0.7971 0.2795 -0.5353
vn -0.2217 0.1178 -0.9680
vn -0.4034 0.8937 0.1963
vn -0.6470 0.3602 0.6720
vn 0.0269 0.9804 -0.1950
vn 0.5251 0.7003 -0.4836
vn 0.8384 -0.0841 -0.5385
vn 0.5659 -0.8178 -0.1045
vn 0.0462 -0.9054 0.4220
vn -0.4267 -0.4500 0.7845
vn 0.0689 -0.9452 0.3191
vn 0.2471 -0.8503 0.4647
vn 0.1730 -0.7975 0.5780
vn -0.5528 -0.5364 0.6377
vn -0.4499 -0.6375 0.6254
vn -0.4215 -0.5978 0.6819
vn -0.4291 0.8308 0.3545
vn -0.5826 0.8127 0.0082
vn -0.6706 0.7224 -0.1687
vn -0.0634 0.9096 -0.4107
vn 0.1029 0.9367 -0.3345
vn 0.1066 0.9757 -0.1916
vn 0.8078 -0.1175 -0.5776
vn 0.9566 -0.0719 -0.2823
vn 0.9879 0.1004 -0.1181
vn 0.8100 -0.5251 0.2612
vn 0.7778 -0.6204 0.1009
vn 0.5953 -0.7827 -0.1819
vn -0.9371 0.1648 0.3078
vn -0.8911 0.0747 0.4475
vn -0.6509 0.1634 0.7414
vn 0.6228 0.6850 -0.3780
vn 0.6866 0.5667 -0.4555
vn 0.5971 0.5697 -0.5647
vn 0.1554 0.4620 0.8732
vn -0.0858 -0.0065 0.9963
vn 0.5778 0.6027 0.5503
vn 0.9472 0.2990 0.1157
vn 0.9281 -0.3633 -0.0813
vn 0.5684 -0.8068 0.1611
vn 0.2391 -0.8446 0.4790
vn -0.0089 -0.5796 0.8149
vn -0.0845 0.8346 0.5444
vn 0.1117 0.9929 0.0404
vn 0.0268 0.8896 -0.4559
vn -0.2956 0.6145 -0.7314
vn -0.7147 0.2847 -0.6389
vn -0.9790 0.0837 -0.1860
vn -0.9104 0.1765 0.3742
vn -0.5295 0.4822 0.6979
vn -0.2953 0.3155 0.9018
vn -0.8810 -0.1568 0.4464
vn -0.8530 -0.3583 -0.3794
vn -0.3733 -0.2266 -0.8996
vn 0.2251 0.0749 -0.9714
vn 0.7184 0.3825 -0.5810
vn 0.7684 0.6292 0.1168
vn 0.3556 0.6272 0.6930
vn 0.2919 0.4426 0.8478
vn 0.8729 0.2955 0.3883
vn 0.9368 0.0395 -0.3476
vn 0.4500 -0.2117 -0.8676
vn -0.3235 -0.2879 -0.9014
vn -0.9164 -0.0982 -0.3879
vn -0.9162 0.2213 0.3342
vn -0.4064 0.4236 0.8096
vn -0.4271 0.2264 0.8754
vn -0.9531 0.0967 0.2870
vn -0.8519 -0.0933 -0.5153
vn -0.1736 -0.1885 -0.9666
vn 0.5860 -0.1424 -0.7977
vn 0.9830 -0.0177 -0.1828
vn 0.8534 0.1277 0.5053
vn 0.3058 0.2276 0.9245
vt 1.000000 0.500000
vt 0.875000 1.000000
vt 0.875000 0.500000
vt 0.750000 0.500000
vt 0.750000 1.000000
vt 0.625000 0.500000
vt 0.625000 1.000000
vt 0.500000 0.500000
vt 0.500000 1.000000
vt 0.375000 0.500000
vt 0.375000 1.000000
vt 0.250000 0.500000
vt 0.250000 1.000000
vt 0.125000 0.500000
vt 0.125000 1.000000
vt 0.000000 0.500000
vt 0.919706 0.080294
vt 0.580294 0.080294
vt 0.580294 0.419706
vt 0.000000 1.000000
vt 1.000000 1.000000
vt 0.010000 0.250000
vt 0.250000 0.010000
vt 0.490000 0.250000
vt 0.750000 0.490000
vt 0.919706 0.419706
vt 0.990000 0.250000
vt 0.750000 0.010000
vt 0.510000 0.250000
vt 0.419706 0.419706
vt 0.250000 0.490000
vt 0.080294 0.419706
vt 0.080294 0.080294
vt 0.419706 0.080294
s 1
usemtl DarkWood.002
f 1/1/1 4/2/4 3/3/3
f 4/2/4 5/4/5 3/3/3
f 6/5/6 7/6/7 5/4/5
f 8/7/8 9/8/9 7/6/7
f 10/9/10 11/10/11 9/8/9
f 12/11/12 13/12/13 11/10/11
f 14/13/14 15/14/15 13/12/13
f 16/15/16 1/16/1 15/14/15
f 7/17/7 11/18/11 15/19/15
f 14/13/14 17/15/17 16/15/16
f 91/5/91 87/2/87 86/5/86
f 89/20/89 81/15/81 88/20/88
f 93/9/93 83/11/83 94/11/94
f 14/13/14 19/11/19 18/13/18
f 31/2/31 27/5/27 33/5/33
f 39/15/39 29/20/29 30/20/30
f 35/9/35 26/7/26 23/9/23
f 12/11/12 24/9/24 19/11/19
f 92/7/92 84/9/84 93/9/93
f 83/11/83 38/13/38 82/13/82
f 86/5/86 31/2/31 33/5/33
f 16/15/16 40/20/40 2/20/2
f 84/9/84 37/11/37 83/11/83
f 84/9/84 34/7/34 35/9/35
f 81/15/81 30/20/30 88/20/88
f 8/7/8 32/5/32 25/7/25
f 37/11/37 23/9/23 22/11/22
f 38/13/38 20/15/20 39/15/39
f 38/13/38 22/11/22 21/13/21
f 6/5/6 36/2/36 32/5/32
f 94/11/94 82/13/82 95/13/95
f 91/5/91 85/7/85 92/7/92
f 95/13/95 81/15/81 96/15/96
f 2/21/2 36/2/36 4/2/4
f 87/2/87 30/21/30 31/2/31
f 85/7/85 33/5/33 34/7/34
f 82/13/82 39/15/39 81/15/81
f 10/9/10 25/7/25 24/9/24
f 23/9/23 27/5/27 29/20/29
f 30/21/30 28/2/28 31/2/31
f 34/7/34 27/5/27 26/7/26
f 51/13/51 48/15/48 52/15/52
f 43/5/43 73/2/73 75/5/75
f 58/5/58 41/2/41 43/5/43
f 63/9/63 46/11/46 64/11/64
f 52/15/52 42/20/42 67/20/67
f 57/2/57 42/21/42 41/2/41
f 70/7/70 43/5/43 44/7/44
f 64/11/64 47/13/47 51/13/51
f 63/9/63 44/7/44 45/9/45
f 72/7/72 62/9/62 61/9/61
f 62/9/62 70/7/70 63/9/63
f 66/11/66 50/13/50 49/13/49
f 65/11/65 51/13/51 50/13/50
f 72/7/72 59/5/59 71/7/71
f 71/7/71 58/5/58 70/7/70
f 55/2/55 68/21/68 56/2/56
f 56/2/56 67/21/67 57/2/57
f 69/20/69 53/15/53 68/20/68
f 68/20/68 52/15/52 67/20/67
f 61/9/61 65/11/65 66/11/66
f 62/9/62 64/11/64 65/11/65
f 60/5/60 56/2/56 59/5/59
f 59/5/59 57/2/57 58/5/58
f 49/13/49 53/15/53 54/15/54
f 50/13/50 52/15/52 53/15/53
f 79/22/79 77/23/77 75/24/75
f 47/13/47 80/15/80 48/15/48
f 46/11/46 77/9/77 78/11/78
f 44/7/44 75/5/75 76/7/76
f 41/2/41 74/21/74 73/2/73
f 48/15/48 74/20/74 42/20/42
f 46/11/46 79/13/79 47/13/47
f 45/9/45 76/7/76 77/9/77
f 90/2/90 88/21/88 87/2/87
f 25/7/25 91/5/91 92/7/92
f 19/11/19 93/9/93 94/11/94
f 32/5/32 90/2/90 91/5/91
f 24/9/24 92/7/92 93/9/93
f 40/21/40 90/2/90 36/2/36
f 19/11/19 95/13/95 18/13/18
f 17/15/17 89/20/89 40/20/40
f 18/13/18 96/15/96 17/15/17
f 108/15/108 103/13/103 104/15/104
f 99/5/99 129/2/129 131/5/131
f 113/2/113 99/5/99 114/5/114
f 120/11/120 101/9/101 102/11/102
f 108/15/108 98/20/98 123/20/123
f 123/21/123 97/2/97 113/2/113
f 114/5/114 100/7/100 126/7/126
f 107/13/107 102/11/102 103/13/103
f 119/9/119 100/7/100 101/9/101
f 117/9/117 127/7/127 118/9/118
f 127/7/127 119/9/119 118/9/118
f 122/11/122 106/13/106 105/13/105
f 106/13/106 120/11/120 107/13/107
f 128/7/128 115/5/115 127/7/127
f 115/5/115 126/7/126 127/7/127
f 125/21/125 112/2/112 111/2/111
f 124/21/124 113/2/113 112/2/112
f 110/15/110 124/20/124 125/20/125
f 124/20/124 108/15/108 123/20/123
f 122/11/122 118/9/118 121/11/121
f 121/11/121 119/9/119 120/11/120
f 116/5/116 112/2/112 115/5/115
f 112/2/112 114/5/114 115/5/115
f 105/13/105 109/15/109 110/15/110
f 109/15/109 107/13/107 108/15/108
f 135/22/135 133/23/133 131/24/131
f 103/13/103 136/15/136 104/15/104
f 101/9/101 134/11/134 102/11/102
f 100/7/100 131/5/131 132/7/132
f 97/2/97 130/21/130 129/2/129
f 104/15/104 130/20/130 98/20/98
f 102/11/102 135/13/135 103/13/103
f 101/9/101 132/7/132 133/9/133
f 163/5/163 159/2/159 158/5/158
f 161/20/161 153/15/153 160/20/160
f 165/9/165 155/11/155 166/11/166
f 146/2/146 142/5/142 147/5/147
f 145/20/145 137/15/137 144/20/144
f 148/7/148 140/9/140 149/9/149
f 164/7/164 156/9/156 165/9/165
f 155/11/155 151/13/151 154/13/154
f 158/5/158 146/2/146 147/5/147
f 156/9/156 150/11/150 155/11/155
f 157/7/157 149/9/149 156/9/156
f 160/20/160 152/15/152 145/20/145
f 149/9/149 139/11/139 150/11/150
f 152/15/152 138/13/138 137/15/137
f 151/13/151 139/11/139 138/13/138
f 166/11/166 154/13/154 167/13/167
f 163/5/163 157/7/157 164/7/164
f 168/15/168 154/13/154 153/15/153
f 159/2/159 145/21/145 146/2/146
f 157/7/157 147/5/147 148/7/148
f 154/13/154 152/15/152 153/15/153
f 146/2/146 144/21/144 143/2/143
f 147/5/147 141/7/141 148/7/148
f 162/2/162 160/21/160 159/2/159
f 140/9/140 142/5/142 144/20/144
f 1/1/1 2/21/2 4/2/4
f 4/2/4 6/5/6 5/4/5
f 6/5/6 8/7/8 7/6/7
f 8/7/8 10/9/10 9/8/9
f 10/9/10 12/11/12 11/10/11
f 12/11/12 14/13/14 13/12/13
f 14/13/14 16/15/16 15/14/15
f 16/15/16 2/20/2 1/16/1
f 15/19/15 1/25/1 3/26/3
f 3/26/3 5/27/5 7/17/7
f 7/17/7 9/28/9 11/18/11
f 11/18/11 13/29/13 15/19/15
f 15/19/15 3/26/3 7/17/7
f 14/13/14 18/13/18 17/15/17
f 91/5/91 90/2/90 87/2/87
f 89/20/89 96/15/96 81/15/81
f 93/9/93 84/9/84 83/11/83
f 14/13/14 12/11/12 19/11/19
f 31/2/31 28/2/28 27/5/27
f 39/15/39 20/15/20 29/20/29
f 35/9/35 34/7/34 26/7/26
f 12/11/12 10/9/10 24/9/24
f 92/7/92 85/7/85 84/9/84
f 83/11/83 37/11/37 38/13/38
f 86/5/86 87/2/87 31/2/31
f 16/15/16 17/15/17 40/20/40
f 84/9/84 35/9/35 37/11/37
f 84/9/84 85/7/85 34/7/34
f 81/15/81 39/15/39 30/20/30
f 8/7/8 6/5/6 32/5/32
f 37/11/37 35/9/35 23/9/23
f 38/13/38 21/13/21 20/15/20
f 38/13/38 37/11/37 22/11/22
f 6/5/6 4/2/4 36/2/36
f 94/11/94 83/11/83 82/13/82
f 91/5/91 86/5/86 85/7/85
f 95/13/95 82/13/82 81/15/81
f 2/21/2 40/21/40 36/2/36
f 87/2/87 88/21/88 30/21/30
f 85/7/85 86/5/86 33/5/33
f 82/13/82 38/13/38 39/15/39
f 10/9/10 8/7/8 25/7/25
f 29/20/29 20/15/20 21/13/21
f 21/13/21 22/11/22 23/9/23
f 23/9/23 26/7/26 27/5/27
f 27/5/27 28/2/28 29/20/29
f 29/20/29 21/13/21 23/9/23
f 30/21/30 29/21/29 28/2/28
f 34/7/34 33/5/33 27/5/27
f 51/13/51 47/13/47 48/15/48
f 43/5/43 41/2/41 73/2/73
f 58/5/58 57/2/57 41/2/41
f 63/9/63 45/9/45 46/11/46
f 52/15/52 48/15/48 42/20/42
f 57/2/57 67/21/67 42/21/42
f 70/7/70 58/5/58 43/5/43
f 64/11/64 46/11/46 47/13/47
f 63/9/63 70/7/70 44/7/44
f 72/7/72 71/7/71 62/9/62
f 62/9/62 71/7/71 70/7/70
f 66/11/66 65/11/65 50/13/50
f 65/11/65 64/11/64 51/13/51
f 72/7/72 60/5/60 59/5/59
f 71/7/71 59/5/59 58/5/58
f 55/2/55 69/21/69 68/21/68
f 56/2/56 68/21/68 67/21/67
f 69/20/69 54/15/54 53/15/53
f 68/20/68 53/15/53 52/15/52
f 61/9/61 62/9/62 65/11/65
f 62/9/62 63/9/63 64/11/64
f 60/5/60 55/2/55 56/2/56
f 59/5/59 56/2/56 57/2/57
f 49/13/49 50/13/50 53/15/53
f 50/13/50 51/13/51 52/15/52
f 75/24/75 73/30/73 74/31/74
f 74/31/74 80/32/80 79/22/79
f 79/22/79 78/33/78 77/23/77
f 77/23/77 76/34/76 75/24/75
f 75/24/75 74/31/74 79/22/79
f 47/13/47 79/13/79 80/15/80
f 46/11/46 45/9/45 77/9/77
f 44/7/44 43/5/43 75/5/75
f 41/2/41 42/21/42 74/21/74
f 48/15/48 80/15/80 74/20/74
f 46/11/46 78/11/78 79/13/79
f 45/9/45 44/7/44 76/7/76
f 90/2/90 89/21/89 88/21/88
f 25/7/25 32/5/32 91/5/91
f 19/11/19 24/9/24 93/9/93
f 32/5/32 36/2/36 90/2/90
f 24/9/24 25/7/25 92/7/92
f 40/21/40 89/21/89 90/2/90
f 19/11/19 94/11/94 95/13/95
f 17/15/17 96/15/96 89/20/89
f 18/13/18 95/13/95 96/15/96
f 108/15/108 107/13/107 103/13/103
f 99/5/99 97/2/97 129/2/129
f 113/2/113 97/2/97 99/5/99
f 120/11/120 119/9/119 101/9/101
f 108/15/108 104/15/104 98/20/98
f 123/21/123 98/21/98 97/2/97
f 114/5/114 99/5/99 100/7/100
f 107/13/107 120/11/120 102/11/102
f 119/9/119 126/7/126 100/7/100
f 117/9/117 128/7/128 127/7/127
f 127/7/127 126/7/126 119/9/119
f 122/11/122 121/11/121 106/13/106
f 106/13/106 121/11/121 120/11/120
f 128/7/128 116/5/116 115/5/115
f 115/5/115 114/5/114 126/7/126
f 125/21/125 124/21/124 112/2/112
f 124/21/124 123/21/123 113/2/113
f 110/15/110 109/15/109 124/20/124
f 124/20/124 109/15/109 108/15/108
f 122/11/122 117/9/117 118/9/118
f 121/11/121 118/9/118 119/9/119
f 116/5/116 111/2/111 112/2/112
f 112/2/112 113/2/113 114/5/114
f 105/13/105 106/13/106 109/15/109
f 109/15/109 106/13/106 107/13/107
f 131/24/131 129/30/129 130/31/130
f 130/31/130 136/32/136 135/22/135
f 135/22/135 134/33/134 133/23/133
f 133/23/133 132/34/132 131/24/131
f 131/24/131 130/31/130 135/22/135
f 103/13/103 135/13/135 136/15/136
f 101/9/101 133/9/133 134/11/134
f 100/7/100 99/5/99 131/5/131
f 97/2/97 98/21/98 130/21/130
f 104/15/104 136/15/136 130/20/130
f 102/11/102 134/11/134 135/13/135
f 101/9/101 100/7/100 132/7/132
f 163/5/163 162/2/162 159/2/159
f 161/20/161 168/15/168 153/15/153
f 165/9/165 156/9/156 155/11/155
f 146/2/146 143/2/143 142/5/142
f 145/20/145 152/15/152 137/15/137
f 148/7/148 141/7/141 140/9/140
f 164/7/164 157/7/157 156/9/156
f 155/11/155 150/11/150 151/13/151
f 158/5/158 159/2/159 146/2/146
f 156/9/156 149/9/149 150/11/150
f 157/7/157 148/7/148 149/9/149
f 160/20/160 153/15/153 152/15/152
f 149/9/149 140/9/140 139/11/139
f 152/15/152 151/13/151 138/13/138
f 151/13/151 150/11/150 139/11/139
f 166/11/166 155/11/155 154/13/154
f 163/5/163 158/5/158 157/7/157
f 168/15/168 167/13/167 154/13/154
f 159/2/159 160/21/160 145/21/145
f 157/7/157 158/5/158 147/5/147
f 154/13/154 151/13/151 152/15/152
f 146/2/146 145/21/145 144/21/144
f 147/5/147 142/5/142 141/7/141
f 162/2/162 161/21/161 160/21/160
f 144/20/144 137/15/137 138/13/138
f 138/13/138 139/11/139 140/9/140
f 140/9/140 141/7/141 142/5/142
f 142/5/142 143/2/143 144/20/144
f 144/20/144 138/13/138 140/9/140
