# Blender 5.0.1
# www.blender.org
mtllib treeB_graveyard1.mtl
o treeB_graveyard_Cylinder
v 0.015351 -0.000000 -0.324434
v 0.001430 0.191808 -0.209428
v 0.314961 -0.000000 -0.211313
v 0.149518 0.191808 -0.148088
v 0.339269 -0.000000 -0.007859
v 0.210858 0.191808 -0.000000
v 0.276672 0.000000 0.281387
v 0.149518 0.191808 0.148088
v -0.012023 0.000000 0.361731
v 0.001430 0.191808 0.209428
v -0.238313 0.000000 0.282008
v -0.146658 0.191808 0.148088
v -0.358909 -0.000000 -0.004188
v -0.207998 0.191808 -0.000000
v -0.240941 -0.000000 -0.280330
v -0.146658 0.191808 -0.148088
v -0.106767 0.992239 -0.108438
v -0.151728 0.992283 -0.000000
v -0.106767 0.992239 0.108438
v -0.054699 2.858796 0.316699
v -0.059456 2.857912 0.328775
v -0.054699 2.859957 0.340709
v -0.043213 2.863735 0.345510
v 0.001779 0.992129 0.153355
v 0.110331 0.992017 0.108438
v -0.031728 2.867030 0.340366
v -0.026970 2.867915 0.328291
v -0.031728 2.865869 0.316357
v -0.043213 2.862092 0.311555
v 0.045989 2.485998 0.279867
v 0.091097 2.501372 0.298717
v 0.155296 0.991969 -0.000000
v 0.109781 2.509632 0.345621
v 0.091097 2.505938 0.393104
v 0.045989 2.492455 0.413350
v 0.110331 0.992017 -0.108438
v 0.000312 2.476718 0.394517
v -0.021049 2.467709 0.347649
v 0.000312 2.472152 0.300131
v 0.001779 0.992129 -0.153355
v -0.169840 1.961843 0.121270
v -0.204825 1.921427 0.197707
v -0.169840 1.907504 0.283043
v -0.088895 1.928113 0.327250
v -0.009403 1.971183 0.304432
v 0.024119 2.011550 0.227979
v -0.009403 2.025521 0.142659
v -0.088895 2.004960 0.098468
v -0.003612 1.630804 -0.050177
v 0.098057 1.609310 -0.013385
v 0.140171 1.573837 0.080954
v 0.098057 1.545167 0.177578
v -0.003612 1.540092 0.219885
v -0.105274 1.561582 0.183092
v -0.147382 1.597051 0.088751
v -0.105274 1.625725 -0.007871
v -0.106748 1.621210 0.118465
v -0.052660 1.592364 0.191569
v 0.031161 1.547559 0.199852
v 0.999713 2.246346 0.240470
v 0.994998 2.241229 0.248431
v 0.990117 2.231910 0.249480
v 0.987930 2.223845 0.243002
v 0.095612 1.513038 0.138458
v 0.102940 1.509021 0.043348
v 0.989716 2.221761 0.232792
v 0.994431 2.226876 0.224831
v 0.999312 2.236197 0.223782
v 1.001500 2.244261 0.230260
v 0.750178 2.418549 0.154064
v 0.741940 2.386619 0.128620
v 0.048851 1.537863 -0.029760
v 0.722904 2.349886 0.132752
v 0.704219 2.329869 0.164040
v 0.696832 2.338291 0.204155
v -0.034970 1.582671 -0.038039
v 0.704954 2.370559 0.230016
v 0.724087 2.408439 0.227827
v 0.742674 2.427309 0.194596
v -0.099421 1.617195 0.023359
v 0.322048 2.380977 0.250135
v 0.325695 2.327803 0.304040
v 0.367199 2.264736 0.310844
v 0.421277 2.229657 0.269081
v 0.456251 2.243114 0.203213
v 0.452200 2.296678 0.150357
v 0.411099 2.359355 0.142505
v 0.357423 2.394046 0.183226
v 0.208922 2.040968 0.065965
v 0.257743 1.995091 0.006480
v 0.318092 1.930179 0.011523
v 0.354617 1.884258 0.078143
v 0.345922 1.884225 0.167311
v 0.297101 1.930098 0.226790
v 0.236752 1.995007 0.221743
v 0.200227 2.040932 0.155128
v -0.468384 1.473798 -0.581953
v -0.479898 1.469393 -0.577797
v -0.489797 1.474464 -0.571050
v -0.492284 1.486042 -0.565665
v -0.485901 1.497344 -0.564795
v -0.474388 1.501750 -0.568951
v -0.464488 1.496679 -0.575698
v -0.462002 1.485101 -0.581084
v -0.258733 1.342768 -0.283039
v -0.268709 1.388548 -0.262276
v -0.307708 1.408594 -0.235923
v -0.352885 1.391163 -0.219415
v -0.377777 1.346466 -0.222423
v -0.367830 1.300012 -0.243202
v -0.329311 1.277343 -0.270340
v -0.283653 1.297396 -0.286063
v 0.029172 0.865596 -0.093586
v -0.031122 0.813768 -0.044814
v -0.090202 0.834468 0.024331
v -0.114365 0.912621 0.071653
v -0.089455 1.002450 0.069432
v -0.029538 1.053051 0.019956
v 0.029919 1.033578 -0.048485
v 0.054455 0.956643 -0.095107
vn 0.0597 -0.4213 -0.9050
vn -0.0089 0.3174 -0.9482
vn 0.7459 -0.3460 -0.5691
vn 0.6186 0.3865 -0.6841
vn 0.9025 -0.4259 0.0643
vn 0.9272 0.3725 0.0384
vn 0.6849 -0.3133 0.6579
vn 0.6566 0.4021 0.6381
vn -0.0195 -0.3717 0.9281
vn 0.0150 0.3942 0.9189
vn -0.6317 -0.3568 0.6883
vn -0.6589 0.4004 0.6368
vn -0.9295 -0.3687 -0.0046
vn -0.9222 0.3867 0.0024
vn -0.5770 -0.3422 -0.7416
vn -0.6404 0.3792 -0.6679
vn -0.6951 0.0921 -0.7130
vn -0.9990 0.0419 -0.0173
vn -0.7147 -0.0085 0.6994
vn -0.6848 0.4901 -0.5393
vn -0.8875 0.4603 -0.0223
vn -0.6848 0.5398 0.4895
vn -0.1881 0.6860 0.7029
vn 0.0015 -0.0257 0.9997
vn 0.7160 -0.0002 0.6981
vn 0.3178 0.8144 0.4855
vn 0.5296 0.8472 -0.0410
vn 0.3178 0.7637 -0.5619
vn -0.1881 0.6149 -0.7658
vn -0.0055 0.2102 -0.9776
vn 0.7304 0.1413 -0.6682
vn 0.9986 0.0506 -0.0162
vn 0.9945 0.1030 0.0202
vn 0.7284 0.0513 0.6833
vn 0.0691 -0.0065 0.9976
vn 0.6961 0.0962 -0.7115
vn -0.6510 0.0165 0.7589
vn -0.9904 0.1292 0.0492
vn -0.7113 0.2150 -0.6692
vn 0.0007 0.1130 -0.9936
vn -0.7481 0.2720 -0.6053
vn -0.9988 0.0454 0.0194
vn -0.7459 -0.1241 0.6544
vn -0.0954 -0.1856 0.9780
vn 0.6683 -0.1443 0.7297
vn 0.9996 0.0194 0.0222
vn 0.6947 0.2501 -0.6744
vn -0.0820 0.3876 -0.9182
vn 0.0201 0.2730 -0.9618
vn 0.7044 0.2623 -0.6595
vn 0.9918 0.1270 0.0163
vn 0.7219 -0.0489 0.6902
vn 0.0311 -0.1871 0.9819
vn -0.7019 -0.2068 0.6816
vn -0.9962 -0.0733 -0.0462
vn -0.6810 0.1334 -0.7200
vn -0.7879 0.5513 0.2742
vn -0.4282 0.2436 0.8703
vn 0.2051 -0.2077 0.9565
vn 0.8680 0.3437 0.3585
vn 0.6258 0.0690 0.7770
vn 0.3620 -0.4174 0.8335
vn 0.2288 -0.8403 0.4915
vn 0.7216 -0.5212 0.4557
vn 0.7993 -0.5060 -0.3242
vn 0.3073 -0.9499 -0.0578
vn 0.5545 -0.6736 -0.4887
vn 0.8224 -0.1749 -0.5414
vn 0.9510 0.2463 -0.1867
vn 0.2928 0.8163 -0.4978
vn 0.1867 0.2709 -0.9443
vn 0.3960 -0.1760 -0.9012
vn 0.0281 -0.4577 -0.8887
vn -0.0057 -0.9670 -0.2549
vn 0.0640 -0.8528 0.5183
vn -0.2231 0.2597 -0.9396
vn 0.0763 -0.2494 0.9654
vn 0.1160 0.5687 0.8143
vn 0.2448 0.9518 0.1845
vn -0.6974 0.5519 -0.4573
vn -0.6107 0.7502 0.2533
vn -0.4563 0.3480 0.8190
vn 0.0555 -0.1207 0.9911
vn 0.5574 -0.4810 0.6767
vn 0.7272 -0.6664 -0.1643
vn 0.3561 -0.2363 -0.9041
vn -0.0892 0.4196 -0.9033
vn -0.4293 0.8138 -0.3917
vn -0.7006 0.5232 -0.4851
vn -0.1020 0.3137 -0.9440
vn 0.5437 -0.0707 -0.8363
vn 0.8848 -0.3681 -0.2858
vn 0.7931 -0.4398 0.4215
vn 0.2615 -0.2609 0.9293
vn -0.4966 0.0766 0.8646
vn -0.8792 0.4097 0.2432
vn 0.0825 -0.2806 -0.9563
vn -0.4134 -0.4638 -0.7836
vn -0.8350 -0.2521 -0.4891
vn -0.9407 0.2387 -0.2411
vn -0.6608 0.7270 -0.1862
vn -0.1554 0.9195 -0.3612
vn 0.2733 0.6980 -0.6619
vn 0.3692 0.1980 -0.9080
vn 0.7672 0.1159 -0.6308
vn 0.7309 0.6796 -0.0626
vn 0.2195 0.8741 0.4333
vn -0.4128 0.6264 0.6612
vn -0.8484 0.0529 0.5267
vn -0.8510 -0.5241 0.0337
vn -0.3719 -0.7378 -0.5633
vn 0.2986 -0.4598 -0.8363
vn 0.0002 -0.4163 -0.9092
vn -0.4756 -0.6129 -0.6310
vn -0.7988 -0.5754 -0.1753
vn -0.8682 -0.2431 0.4326
vn -0.3688 0.3751 0.8505
vn 0.3636 0.7161 0.5957
vn 0.7853 0.6108 -0.1011
vn 0.5697 0.0659 -0.8192
vt 1.000000 0.500000
vt 0.875000 1.000000
vt 0.875000 0.500000
vt 0.750000 1.000000
vt 0.750000 0.500000
vt 0.625000 1.000000
vt 0.625000 0.500000
vt 0.500000 0.500000
vt 0.500000 1.000000
vt 0.375000 0.500000
vt 0.375000 1.000000
vt 0.250000 0.500000
vt 0.125000 1.000000
vt 0.125000 0.500000
vt 0.000000 0.500000
vt 0.919706 0.080294
vt 0.580294 0.080294
vt 0.580294 0.419706
vt 0.250000 1.000000
vt 0.000000 1.000000
vt 1.000000 1.000000
vt 0.750000 0.490000
vt 0.919706 0.419706
vt 0.990000 0.250000
vt 0.750000 0.010000
vt 0.510000 0.250000
s 1
usemtl DarkWood.001
f 1/1/1 4/2/4 3/3/3
f 3/3/3 6/4/6 5/5/5
f 5/5/5 8/6/8 7/7/7
f 8/6/8 9/8/9 7/7/7
f 10/9/10 11/10/11 9/8/9
f 12/11/12 13/12/13 11/10/11
f 13/12/13 16/13/16 15/14/15
f 16/13/16 1/15/1 15/14/15
f 7/16/7 11/17/11 15/18/15
f 14/19/14 17/13/17 16/13/16
f 50/2/50 46/4/46 51/4/51
f 56/13/56 48/20/48 49/20/49
f 54/11/54 44/9/44 43/11/43
f 14/19/14 19/11/19 18/19/18
f 33/4/33 28/2/28 27/4/27
f 30/20/30 20/13/20 29/20/29
f 34/6/34 23/9/23 35/9/35
f 12/11/12 24/9/24 19/11/19
f 53/9/53 45/6/45 44/9/44
f 43/11/43 38/19/38 42/19/42
f 46/4/46 31/2/31 33/4/33
f 16/13/16 40/20/40 2/20/2
f 44/9/44 37/11/37 43/11/43
f 45/6/45 35/9/35 44/9/44
f 48/20/48 39/13/39 30/20/30
f 6/4/6 25/6/25 8/6/8
f 35/9/35 22/11/22 37/11/37
f 39/13/39 21/19/21 20/13/20
f 37/11/37 21/19/21 38/19/38
f 6/4/6 36/2/36 32/4/32
f 55/19/55 43/11/43 42/19/42
f 52/6/52 46/4/46 45/6/45
f 55/19/55 41/13/41 56/13/56
f 2/21/2 36/2/36 4/2/4
f 47/2/47 30/21/30 31/2/31
f 46/4/46 34/6/34 45/6/45
f 41/13/41 38/19/38 39/13/39
f 10/9/10 25/6/25 24/9/24
f 23/9/23 27/4/27 29/20/29
f 31/2/31 29/21/29 28/2/28
f 33/4/33 26/6/26 34/6/34
f 49/21/49 47/2/47 50/2/50
f 32/4/32 52/6/52 25/6/25
f 19/11/19 53/9/53 54/11/54
f 36/2/36 51/4/51 32/4/32
f 24/9/24 52/6/52 53/9/53
f 40/21/40 50/2/50 36/2/36
f 18/19/18 54/11/54 55/19/55
f 17/13/17 49/20/49 40/20/40
f 18/19/18 56/13/56 17/13/17
f 90/2/90 86/4/86 91/4/91
f 96/13/96 88/20/88 89/20/89
f 94/11/94 84/9/84 83/11/83
f 73/4/73 68/2/68 67/4/67
f 70/20/70 60/13/60 69/20/69
f 74/6/74 63/9/63 75/9/75
f 93/9/93 85/6/85 84/9/84
f 82/19/82 77/11/77 78/19/78
f 87/2/87 73/4/73 86/4/86
f 84/9/84 77/11/77 83/11/83
f 85/6/85 75/9/75 84/9/84
f 88/20/88 79/13/79 70/20/70
f 75/9/75 62/11/62 77/11/77
f 79/13/79 61/19/61 60/13/60
f 77/11/77 61/19/61 78/19/78
f 95/19/95 83/11/83 82/19/82
f 91/4/91 85/6/85 92/6/92
f 96/13/96 82/19/82 81/13/81
f 87/2/87 70/21/70 71/2/71
f 86/4/86 74/6/74 85/6/85
f 81/13/81 78/19/78 79/13/79
f 63/9/63 67/4/67 69/20/69
f 71/2/71 69/21/69 68/2/68
f 73/4/73 66/6/66 74/6/74
f 89/21/89 87/2/87 90/2/90
f 72/4/72 92/6/92 65/6/65
f 59/11/59 93/9/93 94/11/94
f 76/2/76 91/4/91 72/4/72
f 64/9/64 92/6/92 93/9/93
f 80/21/80 90/2/90 76/2/76
f 58/19/58 94/11/94 95/19/95
f 57/13/57 89/20/89 80/20/80
f 58/19/58 96/13/96 57/13/57
f 107/4/107 103/2/103 102/4/102
f 105/20/105 97/13/97 104/20/104
f 108/6/108 100/9/100 109/9/109
f 115/11/115 111/19/111 114/19/114
f 118/4/118 106/2/106 107/4/107
f 116/9/116 110/11/110 115/11/115
f 117/6/117 109/9/109 116/9/116
f 120/20/120 112/13/112 105/20/105
f 109/9/109 99/11/99 110/11/110
f 112/13/112 98/19/98 97/13/97
f 110/11/110 98/19/98 111/19/111
f 119/2/119 105/21/105 106/2/106
f 118/4/118 108/6/108 117/6/117
f 113/13/113 111/19/111 112/13/112
f 100/9/100 102/4/102 104/20/104
f 106/2/106 104/21/104 103/2/103
f 107/4/107 101/6/101 108/6/108
f 1/1/1 2/21/2 4/2/4
f 3/3/3 4/2/4 6/4/6
f 5/5/5 6/4/6 8/6/8
f 8/6/8 10/9/10 9/8/9
f 10/9/10 12/11/12 11/10/11
f 12/11/12 14/19/14 13/12/13
f 13/12/13 14/19/14 16/13/16
f 16/13/16 2/20/2 1/15/1
f 15/18/15 1/22/1 3/23/3
f 3/23/3 5/24/5 7/16/7
f 7/16/7 9/25/9 11/17/11
f 11/17/11 13/26/13 15/18/15
f 15/18/15 3/23/3 7/16/7
f 14/19/14 18/19/18 17/13/17
f 50/2/50 47/2/47 46/4/46
f 56/13/56 41/13/41 48/20/48
f 54/11/54 53/9/53 44/9/44
f 14/19/14 12/11/12 19/11/19
f 33/4/33 31/2/31 28/2/28
f 30/20/30 39/13/39 20/13/20
f 34/6/34 26/6/26 23/9/23
f 12/11/12 10/9/10 24/9/24
f 53/9/53 52/6/52 45/6/45
f 43/11/43 37/11/37 38/19/38
f 46/4/46 47/2/47 31/2/31
f 16/13/16 17/13/17 40/20/40
f 44/9/44 35/9/35 37/11/37
f 45/6/45 34/6/34 35/9/35
f 48/20/48 41/13/41 39/13/39
f 6/4/6 32/4/32 25/6/25
f 35/9/35 23/9/23 22/11/22
f 39/13/39 38/19/38 21/19/21
f 37/11/37 22/11/22 21/19/21
f 6/4/6 4/2/4 36/2/36
f 55/19/55 54/11/54 43/11/43
f 52/6/52 51/4/51 46/4/46
f 55/19/55 42/19/42 41/13/41
f 2/21/2 40/21/40 36/2/36
f 47/2/47 48/21/48 30/21/30
f 46/4/46 33/4/33 34/6/34
f 41/13/41 42/19/42 38/19/38
f 10/9/10 8/6/8 25/6/25
f 29/20/29 20/13/20 21/19/21
f 21/19/21 22/11/22 23/9/23
f 23/9/23 26/6/26 27/4/27
f 27/4/27 28/2/28 29/20/29
f 29/20/29 21/19/21 23/9/23
f 31/2/31 30/21/30 29/21/29
f 33/4/33 27/4/27 26/6/26
f 49/21/49 48/21/48 47/2/47
f 32/4/32 51/4/51 52/6/52
f 19/11/19 24/9/24 53/9/53
f 36/2/36 50/2/50 51/4/51
f 24/9/24 25/6/25 52/6/52
f 40/21/40 49/21/49 50/2/50
f 18/19/18 19/11/19 54/11/54
f 17/13/17 56/13/56 49/20/49
f 18/19/18 55/19/55 56/13/56
f 90/2/90 87/2/87 86/4/86
f 96/13/96 81/13/81 88/20/88
f 94/11/94 93/9/93 84/9/84
f 73/4/73 71/2/71 68/2/68
f 70/20/70 79/13/79 60/13/60
f 74/6/74 66/6/66 63/9/63
f 93/9/93 92/6/92 85/6/85
f 82/19/82 83/11/83 77/11/77
f 87/2/87 71/2/71 73/4/73
f 84/9/84 75/9/75 77/11/77
f 85/6/85 74/6/74 75/9/75
f 88/20/88 81/13/81 79/13/79
f 75/9/75 63/9/63 62/11/62
f 79/13/79 78/19/78 61/19/61
f 77/11/77 62/11/62 61/19/61
f 95/19/95 94/11/94 83/11/83
f 91/4/91 86/4/86 85/6/85
f 96/13/96 95/19/95 82/19/82
f 87/2/87 88/21/88 70/21/70
f 86/4/86 73/4/73 74/6/74
f 81/13/81 82/19/82 78/19/78
f 69/20/69 60/13/60 61/19/61
f 61/19/61 62/11/62 63/9/63
f 63/9/63 66/6/66 67/4/67
f 67/4/67 68/2/68 69/20/69
f 69/20/69 61/19/61 63/9/63
f 71/2/71 70/21/70 69/21/69
f 73/4/73 67/4/67 66/6/66
f 89/21/89 88/21/88 87/2/87
f 72/4/72 91/4/91 92/6/92
f 59/11/59 64/9/64 93/9/93
f 76/2/76 90/2/90 91/4/91
f 64/9/64 65/6/65 92/6/92
f 80/21/80 89/21/89 90/2/90
f 58/19/58 59/11/59 94/11/94
f 57/13/57 96/13/96 89/20/89
f 58/19/58 95/19/95 96/13/96
f 107/4/107 106/2/106 103/2/103
f 105/20/105 112/13/112 97/13/97
f 108/6/108 101/6/101 100/9/100
f 115/11/115 110/11/110 111/19/111
f 118/4/118 119/2/119 106/2/106
f 116/9/116 109/9/109 110/11/110
f 117/6/117 108/6/108 109/9/109
f 120/20/120 113/13/113 112/13/112
f 109/9/109 100/9/100 99/11/99
f 112/13/112 111/19/111 98/19/98
f 110/11/110 99/11/99 98/19/98
f 119/2/119 120/21/120 105/21/105
f 118/4/118 107/4/107 108/6/108
f 113/13/113 114/19/114 111/19/111
f 104/20/104 97/13/97 98/19/98
f 98/19/98 99/11/99 100/9/100
f 100/9/100 101/6/101 102/4/102
f 102/4/102 103/2/103 104/20/104
f 104/20/104 98/19/98 100/9/100
f 106/2/106 105/21/105 104/21/104
f 107/4/107 102/4/102 101/6/101
