# Blender 5.0.1
# www.blender.org
mtllib skeleton_archer_skull_mask.mtl
o character_skeleton_archer_mask
v -0.172523 0.676038 0.240220
v -0.121993 0.659528 0.274009
v -0.063150 0.648162 0.294683
v -0.000003 0.644978 0.298253
v 0.063144 0.648162 0.294683
v 0.121988 0.659528 0.274009
v 0.172518 0.676038 0.240220
v -0.228904 0.702389 0.288858
v -0.161861 0.680968 0.332724
v -0.083787 0.668682 0.353757
v -0.000003 0.664899 0.353421
v 0.083781 0.668682 0.353757
v 0.161855 0.680968 0.332723
v 0.228899 0.702389 0.288858
v 0.449102 1.082395 0.155958
v 0.442201 0.981994 0.132257
v 0.323713 0.821089 0.050580
v 0.433799 1.035799 0.247026
v 0.427134 0.936140 0.221933
v 0.312683 0.787712 0.116283
v 0.388934 0.992189 0.331758
v 0.382957 0.893238 0.305501
v 0.280343 0.756556 0.177493
v 0.317562 0.956839 0.403187
v 0.312683 0.854459 0.382158
v 0.224550 0.925071 0.444692
v 0.214925 0.836182 0.432298
v 0.116234 0.955167 0.469054
v 0.114448 0.837124 0.475864
v -0.000003 0.976149 0.477862
v -0.000003 0.832631 0.492442
v -0.116240 0.955167 0.469054
v -0.114454 0.837124 0.475867
v -0.214930 0.836182 0.432301
v -0.317568 0.956839 0.403187
v -0.312688 0.854459 0.382158
v -0.388939 0.992189 0.331758
v -0.382963 0.893238 0.305501
v -0.280349 0.756556 0.177493
v -0.433805 1.035799 0.247026
v -0.427139 0.936140 0.221933
v -0.312688 0.787712 0.116283
v -0.449108 1.082395 0.155958
v -0.442207 0.981994 0.132257
v -0.323719 0.821089 0.050580
v 0.243978 0.773104 0.026226
v 0.235664 0.747968 0.075751
v 0.211291 0.724147 0.121699
v -0.211296 0.724147 0.121699
v -0.235670 0.747968 0.075751
v -0.243983 0.773104 0.026226
v 0.449102 1.100609 0.093576
v 0.433799 1.054325 0.184735
v 0.388934 1.010810 0.269569
v 0.317562 0.973139 0.342322
v 0.224550 0.940072 0.387932
v 0.116234 0.970553 0.411822
v -0.000003 0.996676 0.422972
v -0.116240 0.970553 0.411822
v -0.317568 0.973139 0.342322
v -0.388939 1.010810 0.269569
v -0.433805 1.054325 0.184735
v -0.449108 1.100609 0.093576
v 0.439077 0.915235 0.061740
v 0.424116 0.869814 0.150814
v -0.424122 0.869814 0.150814
v -0.439083 0.915235 0.061740
v -0.380257 0.827359 0.233811
v 0.380252 0.827359 0.233811
v -0.310479 0.774075 0.342228
v -0.216003 0.751317 0.397747
v 0.215998 0.751317 0.397747
v 0.310474 0.774075 0.342228
v -0.113645 0.744814 0.431666
v -0.000003 0.740070 0.438886
v 0.113640 0.744814 0.431663
v -0.165529 0.935807 0.456543
v -0.284874 0.952108 0.420365
v -0.222204 0.884504 0.438263
v -0.281246 0.960226 0.362870
v -0.163509 0.953838 0.400752
v -0.223280 0.901968 0.382977
vn -0.8544 -0.5197 -0.0033
vn -0.5959 -0.7519 -0.2822
vn -0.5820 -0.7898 -0.1937
vn -0.4469 -0.8940 -0.0326
vn -0.5718 -0.8132 -0.1087
vn -0.5235 -0.8365 -0.1620
vn -0.7758 -0.6161 0.1362
vn -0.9472 -0.2032 0.2481
vn -0.1558 -0.8639 0.4790
vn -0.2916 -0.9424 0.1636
vn -0.1475 -0.9470 0.2853
vn 0.7758 -0.6161 0.1362
vn 0.9472 -0.2032 0.2481
vn 0.8473 -0.2734 0.4553
vn -0.3423 -0.8679 0.3601
vn 0.2916 -0.9424 0.1636
vn 0.1558 -0.8639 0.4790
vn 0.1475 -0.9470 0.2853
vn -0.0000 -0.8656 0.5007
vn -0.0000 -0.9406 0.3396
vn 0.5718 -0.8132 -0.1087
vn 0.4469 -0.8940 -0.0326
vn 0.5235 -0.8365 -0.1620
vn 0.3423 -0.8679 0.3601
vn 0.5573 -0.7743 -0.2996
vn 0.5820 -0.7898 -0.1937
vn 0.5394 -0.8109 -0.2268
vn 0.8544 -0.5197 -0.0033
vn 0.5959 -0.7519 -0.2822
vn 0.8746 -0.4754 -0.0955
vn 0.4133 -0.5904 0.6933
vn 0.5289 -0.8418 0.1081
vn 0.6708 -0.6161 0.4129
vn 0.9872 -0.1202 0.1045
vn 0.9631 -0.1245 0.2386
vn 0.2007 -0.5819 0.7881
vn 0.8425 -0.1853 0.5059
vn 0.6402 -0.1964 0.7427
vn 0.6343 -0.2613 0.7276
vn 0.3944 -0.1232 0.9106
vn 0.4187 -0.2683 0.8676
vn 0.2308 -0.2147 0.9490
vn 0.1660 0.0687 0.9837
vn -0.0000 -0.2222 0.9750
vn -0.0000 -0.6125 0.7905
vn -0.1772 0.0689 0.9817
vn -0.2364 -0.2092 0.9489
vn -0.5481 0.8040 0.2306
vn -0.3180 0.9131 0.2550
vn -0.5436 0.8024 0.2465
vn 0.1403 0.9692 0.2025
vn 0.3690 0.9081 0.1982
vn 0.2071 0.9436 0.2581
vn -0.2007 -0.5820 0.7881
vn -0.4133 -0.5904 0.6933
vn -0.6395 -0.1957 0.7434
vn -0.8473 -0.2734 0.4553
vn -0.6358 -0.2635 0.7255
vn -0.5394 -0.8109 -0.2268
vn -0.8425 -0.1853 0.5059
vn -0.5573 -0.7743 -0.2996
vn -0.9631 -0.1245 0.2386
vn -0.9872 -0.1202 0.1045
vn -0.6708 -0.6161 0.4129
vn -0.7765 0.6048 0.1770
vn -0.7281 0.6571 0.1951
vn -0.4008 0.8780 0.2615
vn 0.1103 0.9607 0.2547
vn 0.2752 0.9286 0.2490
vn 0.2647 0.9275 0.2640
vn 0.7765 0.6048 0.1770
vn 0.7281 0.6571 0.1951
vn 0.7768 0.6045 0.1765
vn -0.2358 0.9327 0.2729
vn -0.2125 0.9425 0.2578
vn -0.2123 0.9441 0.2522
vn -0.2929 0.0355 0.9555
vn -0.3304 0.9043 0.2705
vn 0.2358 0.9327 0.2729
vn 0.3304 0.9043 0.2705
vn -0.3116 0.9138 0.2604
vn -0.0000 0.9460 0.3241
vn 0.4008 0.8780 0.2615
vn -0.0000 0.9366 0.3503
vn 0.0029 0.9667 0.2561
vn -0.5289 -0.8418 0.1081
vn -0.4181 -0.2700 0.8673
vn -0.6825 0.6969 0.2201
vn 0.6856 0.7040 0.1853
vn 0.4711 0.8662 0.1669
vn 0.6899 0.6940 0.2058
vn -0.4725 -0.2012 0.8581
vn -0.4197 -0.1366 0.8973
vn -0.8746 -0.4754 -0.0955
vn 0.9885 -0.0956 0.1172
vn -0.0000 0.1011 0.9949
vn -0.9885 -0.0956 0.1172
vn -0.7768 0.6045 0.1765
vn -0.6760 0.6988 0.2339
vt 0.041667 0.333333
vt 0.000000 0.250000
vt 0.041667 0.250000
vt 0.125000 0.179920
vt 0.083333 0.250000
vt 0.083333 0.179920
vt 0.083333 0.333333
vt 0.041667 0.416667
vt 0.208333 0.250000
vt 0.166667 0.179920
vt 0.208333 0.179920
vt 0.416667 0.333333
vt 0.458333 0.416667
vt 0.416667 0.416667
vt 0.166667 0.250000
vt 0.125000 0.179920
vt 0.166667 0.179920
vt 0.333333 0.179920
vt 0.291667 0.250000
vt 0.291667 0.179920
vt 0.291667 0.179920
vt 0.250000 0.250000
vt 0.250000 0.179920
vt 0.208333 0.179920
vt 0.250000 0.179920
vt 0.416667 0.250000
vt 0.375000 0.179920
vt 0.416667 0.179920
vt 0.375000 0.179920
vt 0.333333 0.250000
vt 0.333333 0.179920
vt 0.500000 0.179920
vt 0.458333 0.250000
vt 0.458333 0.179920
vt 0.458333 0.333333
vt 0.500000 0.250000
vt 0.500000 0.333333
vt 0.333333 0.333333
vt 0.375000 0.250000
vt 0.375000 0.333333
vt 0.500000 0.416667
vt 0.458333 0.500000
vt 0.458333 0.179920
vt 0.416667 0.179920
vt 0.291667 0.333333
vt 0.416667 0.500000
vt 0.375000 0.500000
vt 0.375000 0.416667
vt 0.333333 0.500000
vt 0.333333 0.416667
vt 0.291667 0.416667
vt 0.291667 0.500000
vt 0.250000 0.416667
vt 0.250000 0.333333
vt 0.208333 0.500000
vt 0.208333 0.416667
vt 0.189373 0.500000
vt 0.190150 0.500000
vt 0.125000 0.500000
vt 0.141271 0.500000
vt 0.208333 0.333333
vt 0.166667 0.333333
vt 0.083333 0.416667
vt 0.125000 0.416667
vt 0.041667 0.179920
vt 0.083333 0.179920
vt 0.083333 0.500000
vt 0.000000 0.179920
vt 0.041667 0.179920
vt 0.041667 0.500000
vt 0.000000 0.416667
vt 0.125000 0.333333
vt 0.500000 0.500000
vt 0.000000 0.500000
vt 0.189373 0.500000
vt 0.250000 0.500000
vt 0.125000 0.250000
vt 0.166667 0.416667
vt 0.166667 0.500000
vt 0.139646 0.500000
vt 0.166667 0.456016
vt 0.166667 0.456016
vt 0.000000 0.333333
s 1
usemtl PurpleDark
f 66/1/1 45/2/2 42/3/3
f 1/4/4 39/5/5 49/6/6
f 68/7/7 41/8/8 66/1/1
f 10/9/9 2/10/10 3/11/11
f 69/12/12 19/13/13 22/14/14
f 9/15/15 1/16/4 2/17/10
f 6/18/16 12/19/17 5/20/18
f 5/21/18 11/22/19 4/23/20
f 11/22/19 3/24/11 4/25/20
f 23/26/21 7/27/22 48/28/23
f 7/29/22 13/30/24 6/31/16
f 46/32/25 20/33/26 47/34/27
f 65/35/28 17/36/29 64/37/30
f 72/38/31 14/39/32 73/40/33
f 16/41/34 18/42/35 19/13/13
f 47/43/27 23/26/21 48/44/23
f 76/45/36 13/30/24 72/38/31
f 19/13/13 21/46/37 22/14/14
f 22/14/14 24/47/38 25/48/39
f 25/48/39 26/49/40 27/50/41
f 22/14/14 73/40/33 69/12/12
f 26/49/40 29/51/42 27/50/41
f 28/52/43 31/53/44 29/51/42
f 29/51/42 75/54/45 76/45/36
f 31/53/44 32/55/46 33/56/47
f 77/57/48 59/55/49 81/58/50
f 35/59/51 80/60/52 60/59/53
f 9/15/15 74/61/54 71/62/55
f 35/59/56 38/63/57 36/64/58
f 39/5/5 50/65/59 49/66/6
f 37/67/60 41/8/8 38/63/57
f 42/3/3 51/68/61 50/69/59
f 40/70/62 44/71/63 41/8/8
f 70/72/64 38/63/57 68/7/7
f 71/62/55 36/64/58 70/72/64
f 75/54/45 33/56/47 74/61/54
f 15/73/65 53/42/66 18/42/67
f 26/49/68 57/52/69 28/52/70
f 43/74/71 62/70/72 63/74/73
f 21/46/74 55/47/75 24/47/76
f 33/56/47 32/55/46 77/75/77
f 18/42/67 54/46/78 21/46/74
f 37/67/79 60/59/53 61/67/80
f 32/55/81 58/76/82 59/55/49
f 40/70/83 61/67/80 62/70/72
f 28/52/70 58/76/82 30/76/84
f 24/47/76 56/49/85 26/49/68
f 75/54/45 10/9/9 11/22/19
f 8/77/86 71/62/55 70/72/64
f 70/72/64 39/5/5 8/77/86
f 34/78/87 74/61/54 33/56/47
f 12/19/17 75/54/45 11/22/19
f 23/26/21 73/40/33 14/39/32
f 76/45/36 27/50/41 29/51/42
f 25/48/39 72/38/31 73/40/33
f 16/41/34 65/35/28 64/37/30
f 20/33/26 69/12/12 23/26/21
f 68/7/7 42/3/3 39/5/5
f 44/71/63 66/1/1 41/8/8
f 81/58/50 79/79/88 77/57/48
f 82/79/89 78/80/90 79/79/91
f 36/64/58 78/80/92 35/59/56
f 33/56/47 79/81/93 34/78/87
f 79/82/93 36/64/58 34/78/87
f 66/1/1 67/83/94 45/2/2
f 1/4/4 8/77/86 39/5/5
f 68/7/7 38/63/57 41/8/8
f 10/9/9 9/15/15 2/10/10
f 69/12/12 65/35/28 19/13/13
f 9/15/15 8/77/86 1/16/4
f 6/18/16 13/30/24 12/19/17
f 5/21/18 12/19/17 11/22/19
f 11/22/19 10/9/9 3/24/11
f 23/26/21 14/39/32 7/27/22
f 7/29/22 14/39/32 13/30/24
f 46/32/25 17/36/29 20/33/26
f 65/35/28 20/33/26 17/36/29
f 72/38/31 13/30/24 14/39/32
f 16/41/34 15/73/95 18/42/35
f 47/43/27 20/33/26 23/26/21
f 76/45/36 12/19/17 13/30/24
f 19/13/13 18/42/35 21/46/37
f 22/14/14 21/46/37 24/47/38
f 25/48/39 24/47/38 26/49/40
f 22/14/14 25/48/39 73/40/33
f 26/49/40 28/52/43 29/51/42
f 28/52/43 30/76/96 31/53/44
f 29/51/42 31/53/44 75/54/45
f 31/53/44 30/76/96 32/55/46
f 77/57/48 32/55/81 59/55/49
f 35/59/51 78/80/90 80/60/52
f 9/15/15 10/9/9 74/61/54
f 35/59/56 37/67/60 38/63/57
f 39/5/5 42/3/3 50/65/59
f 37/67/60 40/70/62 41/8/8
f 42/3/3 45/2/2 51/68/61
f 40/70/62 43/74/97 44/71/63
f 70/72/64 36/64/58 38/63/57
f 71/62/55 34/78/87 36/64/58
f 75/54/45 31/53/44 33/56/47
f 15/73/65 52/73/98 53/42/66
f 26/49/68 56/49/85 57/52/69
f 43/74/71 40/70/83 62/70/72
f 21/46/74 54/46/78 55/47/75
f 18/42/67 53/42/66 54/46/78
f 37/67/79 35/59/51 60/59/53
f 32/55/81 30/76/84 58/76/82
f 40/70/83 37/67/79 61/67/80
f 28/52/70 57/52/69 58/76/82
f 24/47/76 55/47/75 56/49/85
f 75/54/45 74/61/54 10/9/9
f 8/77/86 9/15/15 71/62/55
f 70/72/64 68/7/7 39/5/5
f 34/78/87 71/62/55 74/61/54
f 12/19/17 76/45/36 75/54/45
f 23/26/21 69/12/12 73/40/33
f 76/45/36 72/38/31 27/50/41
f 25/48/39 27/50/41 72/38/31
f 16/41/34 19/13/13 65/35/28
f 20/33/26 65/35/28 69/12/12
f 68/7/7 66/1/1 42/3/3
f 44/71/63 67/83/94 66/1/1
f 81/58/50 82/79/99 79/79/88
f 82/79/89 80/60/52 78/80/90
f 33/56/47 77/75/77 79/81/93
f 79/82/93 78/80/92 36/64/58
