# Blender 5.0.1
# www.blender.org
mtllib knight_cape.mtl
o Knight_Cape
v 0.316562 0.723692 -0.364021
v -0.316484 0.723692 -0.363984
v 0.122054 0.094046 -0.367476
v -0.000546 0.143682 -0.383842
v -0.121802 0.094046 -0.367476
v -0.172396 0.723692 -0.380498
v -0.000527 0.723692 -0.385026
v 0.172518 0.723692 -0.380544
v 0.310432 0.549613 -0.364125
v 0.301091 0.362308 -0.352513
v -0.300915 0.362308 -0.352513
v -0.310400 0.549613 -0.364124
v 0.133950 0.362308 -0.371227
v 0.145708 0.549613 -0.379586
v -0.000337 0.362308 -0.383900
v -0.000264 0.549613 -0.386094
v -0.133721 0.362308 -0.371220
v -0.145621 0.549613 -0.379582
v 0.321277 0.908707 -0.332513
v -0.321114 0.908707 -0.332410
v -0.176088 0.908707 -0.348314
v -0.000740 0.908707 -0.352409
v 0.176298 0.908707 -0.348414
v 0.268677 1.079988 -0.259333
v -0.268930 1.079988 -0.259273
v -0.146826 1.079988 -0.278240
v 0.000500 1.087518 -0.289808
v 0.146618 1.079988 -0.278281
v 0.472120 0.723692 -0.357489
v -0.472110 0.723692 -0.357484
v 0.485389 0.549613 -0.356100
v 0.472043 0.362308 -0.348946
v -0.471737 0.362308 -0.348956
v -0.485368 0.549613 -0.356099
v 0.448790 0.908707 -0.328377
v -0.448679 0.908707 -0.328319
v 0.370710 1.079988 -0.219570
v -0.371010 1.079988 -0.219527
v 0.209331 1.214211 -0.080408
v -0.210069 1.214211 -0.080408
v -0.113609 1.221398 -0.102139
v 0.001914 1.235991 -0.114925
v 0.112915 1.221398 -0.102144
v 0.291708 1.202019 -0.043505
v -0.292470 1.202019 -0.043505
v 0.241899 0.143682 -0.344566
v -0.241628 0.143682 -0.344566
v -0.373153 0.094046 -0.344566
v 0.373460 0.094046 -0.344566
v 0.128002 0.228171 -0.369351
v -0.000442 0.228171 -0.383871
v -0.127762 0.228171 -0.369348
v 0.422752 0.228171 -0.346756
v -0.422445 0.228171 -0.346761
v -0.271271 0.228171 -0.348539
v 0.271495 0.228171 -0.348540
vn 0.0684 0.0800 -0.9945
vn 0.0704 -0.0313 -0.9970
vn 0.0657 -0.0293 -0.9974
vn -0.0762 0.0820 -0.9937
vn -0.0327 0.3308 -0.9431
vn -0.0899 0.3283 -0.9403
vn -0.0659 -0.0293 -0.9974
vn -0.0002 0.0858 -0.9963
vn -0.0001 -0.0136 -0.9999
vn 0.0005 0.5773 -0.8166
vn 0.1662 0.7730 -0.6122
vn 0.1032 0.6006 -0.7928
vn 0.2367 0.6643 -0.7090
vn 0.2240 0.8160 -0.5329
vn 0.3206 0.8398 -0.4382
vn -0.1020 -0.0328 -0.9942
vn -0.0003 -0.0060 -1.0000
vn 0.0748 -0.0399 -0.9964
vn 0.0636 -0.0539 -0.9965
vn 0.0257 -0.0418 -0.9988
vn -0.2366 0.6640 -0.7093
vn -0.1912 0.6335 -0.7497
vn 0.1017 -0.0328 -0.9943
vn 0.0697 0.2839 -0.9563
vn 0.1911 0.6340 -0.7494
vn 0.0900 0.3284 -0.9402
vn -0.0004 0.2670 -0.9637
vn -0.0700 0.2839 -0.9563
vn -0.0686 0.0802 -0.9944
vn -0.0704 -0.0312 -0.9970
vn -0.0748 -0.0399 -0.9964
vn -0.0635 -0.0539 -0.9965
vn -0.1032 0.6005 -0.7929
vn 0.0429 0.0740 -0.9963
vn 0.0458 -0.0230 -0.9987
vn -0.0005 -0.0099 -1.0000
vn -0.0010 -0.0003 -1.0000
vn -0.1456 -0.0318 -0.9888
vn 0.0764 0.0818 -0.9937
vn 0.0330 0.3306 -0.9432
vn -0.2241 0.8157 -0.5333
vn -0.1638 0.7736 -0.6121
vn -0.0427 0.0742 -0.9963
vn -0.0256 -0.0418 -0.9988
vn 0.0040 0.7623 -0.6472
vn -0.3207 0.8394 -0.4388
vn -0.0458 -0.0230 -0.9987
vn 0.1279 -0.0195 -0.9916
vn 0.1449 -0.0318 -0.9889
vn -0.0019 -0.0282 -0.9996
vn -0.0118 -0.0207 -0.9997
vn -0.1284 -0.0195 -0.9915
vn 0.0118 -0.0207 -0.9997
vn 0.0019 -0.0281 -0.9996
vn 0.1342 -0.0934 -0.9865
vn -0.1343 -0.0935 -0.9865
vt 0.044169 0.678435
vt 0.034839 0.632355
vt 0.045983 0.632355
vt 0.077249 0.650159
vt 0.086192 0.669082
vt 0.077563 0.669082
vt 0.065691 0.632355
vt 0.055875 0.678435
vt 0.055857 0.632355
vt 0.055806 0.715646
vt 0.048202 0.701063
vt 0.045921 0.714876
vt 0.030761 0.686600
vt 0.041679 0.700328
vt 0.036106 0.699081
vt 0.064886 0.613198
vt 0.055862 0.613198
vt 0.037473 0.583224
vt 0.035471 0.613198
vt 0.023907 0.580976
vt 0.080938 0.686600
vt 0.074032 0.686600
vt 0.046778 0.613198
vt 0.043913 0.697358
vt 0.037664 0.686600
vt 0.034105 0.669082
vt 0.055890 0.697358
vt 0.067752 0.697358
vt 0.067502 0.678435
vt 0.076837 0.632355
vt 0.074191 0.583224
vt 0.076196 0.613198
vt 0.065772 0.714876
vt 0.023902 0.650159
vt 0.023004 0.600133
vt 0.055869 0.586772
vt 0.055876 0.560346
vt 0.067232 0.560856
vt 0.034425 0.650159
vt 0.025480 0.669082
vt 0.070050 0.700328
vt 0.063525 0.701063
vt 0.087777 0.650159
vt 0.087752 0.580976
vt 0.055710 0.702556
vt 0.075625 0.699081
vt 0.088674 0.600133
vt 0.045604 0.587027
vt 0.044430 0.560856
vt 0.081083 0.553995
vt 0.084417 0.567486
vt 0.066059 0.587027
vt 0.027241 0.567486
vt 0.030575 0.553995
vt 0.039475 0.553249
vt 0.072186 0.553249
s 1
usemtl knight
f 8/1/1 9/2/2 14/3/3
f 2/4/4 36/5/5 20/6/6
f 18/7/7 7/8/8 16/9/9
f 27/10/10 43/11/11 28/12/12
f 37/13/13 39/14/14 44/15/15
f 17/16/16 16/9/9 15/17/17
f 56/18/18 10/19/19 32/20/20
f 20/6/6 38/21/21 25/22/22
f 14/3/3 9/2/2 13/23/23
f 23/24/24 24/25/25 19/26/26
f 22/27/27 8/1/1 7/8/8
f 2/4/4 21/28/28 6/29/29
f 12/30/30 6/29/29 18/7/7
f 22/27/27 28/12/12 23/24/24
f 25/22/22 21/28/28 20/6/6
f 7/8/8 14/3/3 16/9/9
f 6/29/29 22/27/27 7/8/8
f 55/31/31 11/32/32 17/16/16
f 26/33/33 22/27/27 21/28/28
f 9/2/2 29/34/34 31/35/35
f 9/2/2 32/20/20 10/19/19
f 28/12/12 39/14/14 24/25/25
f 51/36/36 4/37/37 5/38/38
f 37/13/13 19/26/26 24/25/25
f 1/39/39 23/24/24 19/26/26
f 1/39/39 35/40/40 29/34/34
f 26/33/33 40/41/41 41/42/42
f 41/42/42 27/10/10 26/33/33
f 38/21/21 40/41/41 25/22/22
f 13/23/23 16/9/9 14/3/3
f 12/30/30 30/43/43 2/4/4
f 33/44/44 12/30/30 11/32/32
f 33/44/44 11/32/32 55/31/31
f 13/23/23 10/19/19 56/18/18
f 8/1/1 1/39/39 9/2/2
f 2/4/4 30/43/43 36/5/5
f 18/7/7 6/29/29 7/8/8
f 27/10/10 42/45/45 43/11/11
f 9/2/2 10/19/19 13/23/23
f 37/13/13 24/25/25 39/14/14
f 17/16/16 18/7/7 16/9/9
f 51/36/36 15/17/17 13/23/23
f 20/6/6 36/5/5 38/21/21
f 18/7/7 17/16/16 12/30/30
f 23/24/24 28/12/12 24/25/25
f 22/27/27 23/24/24 8/1/1
f 2/4/4 20/6/6 21/28/28
f 12/30/30 2/4/4 6/29/29
f 22/27/27 27/10/10 28/12/12
f 25/22/22 26/33/33 21/28/28
f 7/8/8 8/1/1 14/3/3
f 6/29/29 21/28/28 22/27/27
f 26/33/33 27/10/10 22/27/27
f 9/2/2 1/39/39 29/34/34
f 9/2/2 31/35/35 32/20/20
f 28/12/12 43/11/11 39/14/14
f 37/13/13 35/40/40 19/26/26
f 1/39/39 8/1/1 23/24/24
f 1/39/39 19/26/26 35/40/40
f 26/33/33 25/22/22 40/41/41
f 41/42/42 42/45/45 27/10/10
f 38/21/21 45/46/46 40/41/41
f 13/23/23 15/17/17 16/9/9
f 12/30/30 34/47/47 30/43/43
f 33/44/44 34/47/47 12/30/30
f 17/16/16 11/32/32 12/30/30
f 51/36/36 50/48/48 3/49/49
f 3/49/49 50/48/48 56/18/18
f 48/50/50 54/51/51 55/31/31
f 17/16/16 15/17/17 51/36/36
f 55/31/31 52/52/52 5/38/38
f 56/18/18 53/53/53 49/54/54
f 53/53/53 56/18/18 32/20/20
f 46/55/55 56/18/18 49/54/54
f 50/48/48 13/23/23 56/18/18
f 46/55/55 3/49/49 56/18/18
f 54/51/51 33/44/44 55/31/31
f 47/56/56 48/50/50 55/31/31
f 52/52/52 55/31/31 17/16/16
f 47/56/56 55/31/31 5/38/38
f 50/48/48 51/36/36 13/23/23
f 52/52/52 51/36/36 5/38/38
f 52/52/52 17/16/16 51/36/36
f 4/37/37 51/36/36 3/49/49
