# Blender 5.0.1
# www.blender.org
mtllib ranger_quiver.mtl
o Ranger_Quiver
v 0.058373 1.027689 -0.360075
v 0.038855 1.016420 -0.418485
v -0.078948 1.128597 -0.377698
v 0.047532 1.008054 -0.300094
v -0.069987 1.136674 -0.294182
v -0.051414 1.183151 -0.341121
v -0.061099 1.178524 -0.391719
v -0.117486 1.255661 -0.330627
v -0.131838 1.218220 -0.282381
v -0.236656 1.151626 -0.297022
v -0.129093 1.063414 -0.438510
v -0.118356 1.049082 -0.414438
v -0.222622 1.155978 -0.425114
v -0.023298 0.937954 -0.310238
v -0.023298 0.956383 -0.437586
v -0.162405 1.237777 -0.373901
v -0.166340 1.217291 -0.416241
v -0.162405 1.228463 -0.309547
v -0.086666 1.138438 -0.427653
v -0.165469 1.168597 -0.276860
v -0.090750 1.094648 -0.287562
v -0.137044 1.250155 -0.378515
v -0.104970 0.866029 -0.383470
v -0.085452 0.893395 -0.436289
v -0.202314 1.006503 -0.395367
v -0.094128 0.867854 -0.320383
v -0.222269 0.985962 -0.315993
v -0.261544 0.975188 -0.371216
v -0.249718 0.991850 -0.418733
v -0.334810 1.040578 -0.361753
v -0.304665 1.047175 -0.307134
v -0.310907 1.090805 -0.395170
v -0.284573 1.100277 -0.433175
v -0.310907 1.081492 -0.330816
v -0.204898 1.021424 -0.444586
v -0.256344 1.078659 -0.289876
v -0.181625 1.004710 -0.300578
v -0.322501 1.066609 -0.405077
v 0.253277 0.845273 -0.383944
v 0.241444 0.818929 -0.440336
v 0.250400 0.811793 -0.328496
v 0.217280 0.699856 -0.344695
v 0.213822 0.721529 -0.470312
v 0.078983 0.672777 -0.408907
v 0.113133 0.691940 -0.458713
v 0.104177 0.667077 -0.349439
v 0.321623 0.734531 -0.399970
v 0.289191 0.743609 -0.454415
v 0.296136 0.734032 -0.339749
v 0.279435 0.638345 -0.353597
v 0.300175 0.626366 -0.415623
v 0.273698 0.661534 -0.473773
v 0.190883 0.605139 -0.418695
v 0.189696 0.645140 -0.468665
v 0.182752 0.621817 -0.355989
v -0.236656 1.167643 -0.407696
v -0.028019 0.865530 -0.480273
v -0.015897 0.880068 -0.496098
v 0.072732 0.965243 -0.465843
v 0.060610 0.955787 -0.485141
v 0.115987 0.900982 -0.493072
v 0.128109 0.910438 -0.473774
v 0.144419 0.868156 -0.464759
v 0.142926 0.893628 -0.461072
v -0.017788 1.028691 -0.441526
v 0.008299 1.026867 -0.441790
v 0.027357 0.810725 -0.488204
v 0.039479 0.825263 -0.504029
v 0.067912 0.792437 -0.475716
v 0.042174 0.793915 -0.475502
v -0.094296 0.952972 -0.452484
v -0.092453 0.927154 -0.456220
v 0.049649 0.969504 -0.503396
v 0.061771 0.978960 -0.484098
v -0.026858 0.893786 -0.514354
v -0.038980 0.879247 -0.498528
v 0.143672 0.876293 -0.431137
v -0.011727 1.030090 -0.408880
v 0.055043 0.788577 -0.443831
v -0.100357 0.942375 -0.421574
v -0.170623 1.211536 -0.324973
v -0.231285 1.148870 -0.315499
v -0.170623 1.217170 -0.363907
v -0.291948 1.091461 -0.342350
v -0.231285 1.159761 -0.390757
v -0.291948 1.097095 -0.381284
v -0.137633 1.061628 -0.366542
v -0.103106 1.050626 -0.357891
v -0.127980 1.026008 -0.361454
v -0.115543 1.042680 -0.389822
v -0.268682 1.189007 -0.331749
v -0.278607 1.182666 -0.357231
v -0.258757 1.202312 -0.354388
v -0.340050 1.259801 -0.322680
v -0.330827 1.272163 -0.343700
v -0.349262 1.253916 -0.346330
v -0.341513 1.175892 -0.315583
v -0.387237 1.253855 -0.317173
v -0.299770 1.231849 -0.410807
v -0.361091 1.288897 -0.376808
v -0.258022 1.258520 -0.303621
v -0.334947 1.305599 -0.309684
v -0.136290 0.984397 -0.387997
v -0.117132 1.013594 -0.383771
v -0.126711 0.994632 -0.355734
v -0.308339 1.116600 -0.374981
v -0.300695 1.124768 -0.349234
v -0.315984 1.101467 -0.352606
v -0.392982 1.170838 -0.365956
v -0.400086 1.156778 -0.345182
v -0.385886 1.178419 -0.342060
v -0.313051 1.191860 -0.382153
v -0.397807 1.218469 -0.365430
v -0.345201 1.128215 -0.288041
v -0.417940 1.178607 -0.306493
v -0.377357 1.093856 -0.396340
v -0.438077 1.157090 -0.374313
v -0.087631 1.042792 -0.379546
v -0.058129 1.061753 -0.376802
v -0.072880 1.047910 -0.348024
v -0.190829 1.232898 -0.358150
v -0.179058 1.236982 -0.332995
v -0.202601 1.221850 -0.335184
v -0.245795 1.316505 -0.344876
v -0.256735 1.306241 -0.323552
v -0.234870 1.320295 -0.321528
v -0.165256 1.303769 -0.365958
v -0.231000 1.362038 -0.344653
v -0.214764 1.257303 -0.269360
v -0.262004 1.332934 -0.284159
v -0.264280 1.240125 -0.375173
v -0.293012 1.322177 -0.350423
v 0.044959 0.995599 -0.481690
v 0.016713 1.020712 -0.458007
v -0.084038 0.920999 -0.472437
v -0.055792 0.895886 -0.496120
v -0.076420 0.939973 -0.487469
v -0.048282 0.914989 -0.511285
v 0.000087 1.015692 -0.476511
v 0.028225 0.990708 -0.500327
vn -0.6556 -0.5815 -0.4817
vn -0.5329 -0.4430 -0.7209
vn -0.6404 -0.6610 -0.3912
vn -0.5808 0.7301 0.3600
vn 0.1195 0.5035 0.8557
vn -0.3959 0.8815 0.2573
vn 0.6471 0.4335 0.6271
vn 0.3225 0.1597 0.9330
vn 0.8949 -0.3670 -0.2540
vn 0.9102 -0.3796 -0.1657
vn 0.6465 -0.5818 -0.4936
vn 0.9061 -0.4193 -0.0567
vn 0.9123 -0.3993 -0.0912
vn 0.0701 0.2641 -0.9619
vn -0.0186 0.1616 -0.9867
vn -0.0870 0.2283 -0.9697
vn 0.6019 0.7188 -0.3479
vn 0.5973 0.7812 -0.1815
vn 0.6779 0.7350 -0.0174
vn 0.6840 0.6447 0.3413
vn 0.7649 0.6439 -0.0203
vn 0.2027 0.3551 -0.9126
vn 0.5417 0.6206 -0.5670
vn 0.1585 0.2964 -0.9418
vn 0.0584 0.3947 -0.9169
vn -0.4982 0.5947 -0.6310
vn -0.4364 0.5446 -0.7163
vn -0.6908 0.6073 -0.3923
vn -0.6287 0.7767 -0.0392
vn -0.4484 0.8906 -0.0756
vn 0.6369 0.7702 -0.0333
vn 0.9118 -0.3738 -0.1702
vn 0.0122 -0.1241 0.9922
vn 0.0780 -0.0431 0.9960
vn -0.3763 0.2512 0.8918
vn -0.7741 0.5388 0.3323
vn -0.6208 -0.2293 0.7497
vn -0.2917 -0.4481 0.8450
vn -0.2474 -0.0346 0.9683
vn -0.1000 -0.2193 0.9705
vn -0.0193 -0.1553 0.9877
vn -0.0000 -0.1432 0.9897
vn -0.5449 0.7518 -0.3714
vn 0.6099 -0.5311 -0.5882
vn -0.7630 0.6437 -0.0584
vn -0.9093 0.3735 0.1838
vn -0.5189 -0.7204 0.4601
vn -0.5791 -0.7075 0.4051
vn 0.3996 -0.8572 -0.3249
vn 0.3994 -0.8851 -0.2389
vn 0.4231 -0.8973 -0.1258
vn 0.4082 -0.8981 -0.1634
vn -0.1236 0.0724 -0.9897
vn -0.6616 -0.5316 -0.5289
vn -0.7249 -0.6534 -0.2183
vn -0.7471 -0.5494 -0.3741
vn -0.6343 -0.7409 -0.2207
vn -0.2207 -0.0640 -0.9732
vn -0.1585 -0.0173 -0.9872
vn -0.2593 0.0803 -0.9624
vn -0.8706 0.4728 -0.1360
vn -0.7575 -0.6098 -0.2330
vn 0.3943 -0.8859 -0.2444
vn -0.6869 -0.7121 0.1449
vn -0.0000 0.1432 -0.9897
vn -0.1044 0.1069 0.9888
vn -0.6502 0.6998 -0.2958
vn -0.5082 0.8561 -0.0938
vn 0.6445 0.7052 -0.2955
vn 0.7102 0.6757 -0.1977
vn -0.5230 -0.6184 -0.5866
vn -0.1569 -0.9662 -0.2043
vn 0.6960 0.5880 -0.4120
vn 0.9855 0.1644 -0.0407
vn 0.8453 0.2757 -0.4576
vn -0.1139 0.0201 -0.9933
vn 0.1224 0.2540 -0.9594
vn 0.0171 0.1263 -0.9918
vn -0.5768 -0.7979 0.1751
vn 0.9061 -0.2245 0.3587
vn 0.9086 -0.2306 0.3483
vn 0.8789 -0.1070 -0.4649
vn 0.8720 -0.0850 -0.4821
vn 0.1783 -0.9533 0.2437
vn 0.1708 -0.9522 0.2534
vn -0.2073 -0.7661 -0.6083
vn 0.1532 -0.7964 -0.5851
vn 0.1348 0.2332 -0.9630
vn 0.7646 0.5297 0.3672
vn 0.0431 0.1003 -0.9940
vn -0.0929 0.0079 -0.9956
vn -0.2086 -0.9515 0.2260
vn -0.4831 -0.8742 0.0489
vn -0.6953 -0.7142 0.0802
vn -0.3791 -0.8718 -0.3101
vn -0.5086 -0.4038 -0.7605
vn -0.7078 -0.5211 -0.4769
vn -0.6375 -0.3094 -0.7055
vn 0.3006 -0.6670 -0.6817
vn 0.0940 -0.7680 -0.6335
vn -0.0395 -0.3248 -0.9450
vn -0.5171 -0.6764 -0.5244
vn 0.8080 -0.0993 -0.5808
vn 0.4567 0.1664 -0.8739
vn 0.7578 -0.2146 -0.6162
vn 0.3969 -0.6034 -0.6917
vn 0.6962 -0.3071 -0.6488
vn -0.6919 -0.6553 -0.3030
vn -0.8388 -0.3925 -0.3773
vn -0.5085 -0.4038 -0.7605
vn -0.6746 0.2491 -0.6949
vn -0.9262 -0.0137 -0.3769
vn -0.8624 0.4270 -0.2718
vn 0.5085 0.6028 -0.6148
vn 0.7446 0.5723 -0.3437
vn 0.9073 0.4012 -0.1259
vn -0.3837 0.9008 -0.2033
vn -0.1631 0.3008 -0.9396
vn -0.1470 0.7712 -0.6193
vn 0.0675 0.9698 -0.2346
vn 0.4424 0.8756 -0.1938
vn 0.8508 -0.0190 -0.5251
vn 0.5841 0.7574 -0.2919
vn 0.6725 0.7098 -0.2095
vn -0.9778 -0.0401 -0.2055
vn 0.6773 -0.7115 0.1872
vn 0.8582 0.4533 0.2410
vn -0.7071 0.6998 0.1013
vn 0.0691 0.9961 -0.0555
vn 0.1814 -0.7193 -0.6706
vn 0.8581 0.4533 0.2411
vn 0.6953 0.6621 0.2794
vn 0.6832 0.6392 0.3531
vn 0.6919 0.7143 -0.1048
vn 0.6953 0.6622 0.2794
vn -0.3335 -0.0866 0.9388
vn -0.1951 0.0554 0.9792
vn -0.5082 0.7944 0.3327
vn -0.6502 0.5872 0.4821
vn -0.8338 0.4721 0.2860
vn -0.8338 0.5338 -0.1404
vn -0.6509 0.7001 -0.2936
vn -0.6509 0.5882 0.4801
vn -0.0487 0.1952 0.9795
vn -0.9779 -0.2069 -0.0299
vn 0.2091 0.9678 0.1400
vn -0.0487 0.4649 -0.8840
vn -0.1951 0.3308 -0.9233
vn -0.3335 0.1830 -0.9248
vn 0.1725 -0.8061 -0.5661
vn 0.9093 0.1549 0.3861
vn -0.5182 0.8171 0.2528
vn -0.6814 0.7128 -0.1663
vn -0.8447 0.4939 0.2061
vn -0.9353 0.1891 -0.2992
vn 0.5716 0.5730 0.5873
vn 0.6319 0.6579 -0.4098
vn -0.0398 0.1824 -0.9824
vn -0.5924 -0.5538 -0.5852
vn -0.6512 -0.6372 0.4122
vn 0.0197 -0.1627 0.9865
vn 0.5706 -0.4802 -0.6662
vn -0.0416 -0.1019 0.9939
vn 0.1746 0.0800 0.9814
vn -0.0082 -0.1352 0.9908
vn -0.1442 0.9720 -0.1857
vn -0.6529 -0.4924 -0.5756
vn -0.5117 -0.3585 -0.7808
vn -0.5702 -0.3496 -0.7434
vn 0.2090 -0.9649 0.1587
vn -0.7089 -0.6229 -0.3310
vn -0.6205 -0.5264 -0.5813
vn -0.5396 0.4419 0.7166
vn 0.5698 0.7176 -0.4005
vn 0.6638 0.7356 -0.1347
vn 0.6166 0.7675 -0.1757
vn 0.9323 -0.2491 0.2623
vn 0.4668 0.6098 -0.6405
vn 0.6043 0.6856 -0.4060
vn -0.2197 -0.3103 0.9249
vn -0.2231 -0.2430 0.9440
vn -0.9341 0.3469 -0.0844
vn -0.8084 0.4812 0.3391
vn -0.6826 0.7302 -0.0290
vn -0.3356 0.8294 0.4466
vn -0.5181 -0.6158 -0.5935
vn -0.4481 -0.8052 0.3885
vn -0.0472 -0.1127 0.9925
vn 0.4949 0.6319 0.5965
vn 0.4237 0.8195 -0.3858
vn 0.0234 0.1281 -0.9915
vn 0.6768 -0.5196 0.5215
vn -0.0493 0.1747 -0.9834
vn -0.1786 -0.0768 -0.9809
vn -0.0096 0.1495 -0.9887
vn -0.9449 -0.0992 0.3120
vn 0.4216 0.6778 0.6024
vn 0.3501 0.4880 0.7995
vn 0.3240 0.5469 0.7720
vn 0.9554 0.0318 -0.2937
vn 0.5019 0.7887 0.3550
vn 0.4620 0.6534 0.5997
vn -0.6403 0.5038 -0.5798
vn -0.5201 -0.7574 0.3947
vn -0.5553 -0.8227 0.1221
vn -0.5901 -0.7886 0.1726
vn 0.3982 -0.8172 -0.4166
vn -0.4035 -0.6605 0.6331
vn -0.4812 -0.7842 0.3917
vn 0.1252 0.3861 -0.9139
vn 0.0566 0.3765 -0.9247
vn -0.7186 0.6945 -0.0341
vn -0.5250 0.7617 0.3796
vn -0.3314 0.9435 0.0019
vn 0.0533 0.8888 0.4552
vn -0.7558 -0.3478 -0.5548
vn -0.7108 -0.5614 0.4238
vn -0.0306 -0.0963 0.9949
vn 0.7412 0.3718 0.5588
vn 0.6945 0.5843 -0.4199
vn 0.0152 0.1200 -0.9927
vn 0.4395 -0.7544 0.4875
vn -0.0320 0.1918 -0.9809
vn -0.2512 0.0136 -0.9678
vn -0.0062 0.1528 -0.9882
vn -0.8850 0.2857 0.3677
vn 0.6931 0.4433 0.5685
vn 0.5628 0.2960 0.7718
vn 0.5611 0.3607 0.7450
vn 0.8685 -0.3519 -0.3493
vn 0.7967 0.5155 0.3154
vn 0.7200 0.4048 0.5637
vn -0.4160 0.7260 -0.5476
vn -0.7570 -0.4888 0.4336
vn -0.8313 -0.5310 0.1643
vn -0.8465 -0.4864 0.2164
vn 0.0106 -0.9032 -0.4291
vn -0.5977 -0.4499 0.6636
vn -0.7325 -0.5289 0.4286
vn 0.2165 0.3142 -0.9243
vn 0.1494 0.3331 -0.9310
vn -0.6725 -0.6213 -0.4021
vn -0.5604 -0.4146 -0.7170
vn 0.6422 0.5012 0.5800
vn 0.5130 0.6478 -0.5632
vn -0.6832 -0.7131 0.1574
vn 0.4073 0.7246 -0.5559
vn 0.1053 0.0820 0.9911
vn -0.7345 -0.5697 -0.3688
vn 0.4526 0.6627 -0.5966
vn -0.1963 -0.0091 -0.9805
vn 0.4504 0.7973 0.4017
vn -0.4639 -0.6537 0.5979
vn -0.2401 0.0828 -0.9672
vn 0.7559 0.5435 0.3650
vn -0.6521 -0.4189 0.6319
vt 0.842279 0.661991
vt 0.840159 0.616241
vt 0.841747 0.616655
vt 0.785767 0.702299
vt 0.779162 0.681888
vt 0.772220 0.690642
vt 0.810723 0.616655
vt 0.811524 0.623175
vt 0.813274 0.586405
vt 0.817508 0.565611
vt 0.814087 0.563603
vt 0.826236 0.554866
vt 0.810723 0.569780
vt 0.814336 0.592174
vt 0.826236 0.581331
vt 0.826236 0.586116
vt 0.814087 0.594853
vt 0.812315 0.587823
vt 0.812315 0.574645
vt 0.817508 0.661916
vt 0.812311 0.616241
vt 0.817508 0.612486
vt 0.806122 0.702299
vt 0.806122 0.686739
vt 0.824567 0.689874
vt 0.777188 0.694662
vt 0.812311 0.569366
vt 0.814797 0.586405
vt 0.826474 0.702299
vt 0.833085 0.681888
vt 0.839198 0.586405
vt 0.838339 0.617149
vt 0.840946 0.614128
vt 0.837675 0.579919
vt 0.840157 0.572373
vt 0.826236 0.572373
vt 0.787678 0.689874
vt 0.826236 0.559101
vt 0.840027 0.690642
vt 0.840946 0.623175
vt 0.834963 0.565611
vt 0.838383 0.563603
vt 0.841747 0.569780
vt 0.838136 0.592174
vt 0.840157 0.587823
vt 0.838383 0.594853
vt 0.812315 0.582768
vt 0.812315 0.572373
vt 0.834963 0.661916
vt 0.834963 0.612486
vt 0.835056 0.694662
vt 0.840159 0.569366
vt 0.840157 0.574645
vt 0.836868 0.586405
vt 0.814797 0.579919
vt 0.826236 0.661611
vt 0.820301 0.673733
vt 0.791946 0.673733
vt 0.806122 0.659358
vt 0.822752 0.653400
vt 0.826474 0.659358
vt 0.810193 0.661991
vt 0.837675 0.586405
vt 0.819164 0.611089
vt 0.833308 0.611089
vt 0.826236 0.590329
vt 0.840157 0.582768
vt 0.840157 0.604415
vt 0.826236 0.529579
vt 0.812315 0.540948
vt 0.826236 0.534456
vt 0.840157 0.540948
vt 0.838136 0.545299
vt 0.812315 0.604415
vt 0.814132 0.617149
vt 0.815602 0.586405
vt 0.824125 0.560700
vt 0.826255 0.617425
vt 0.826255 0.563431
vt 0.821996 0.595979
vt 0.826255 0.602722
vt 0.821996 0.604571
vt 0.821996 0.560333
vt 0.826255 0.560333
vt 0.826255 0.564729
vt 0.821996 0.569372
vt 0.826255 0.569372
vt 0.795117 0.557970
vt 0.795117 0.569372
vt 0.795117 0.560333
vt 0.821996 0.564729
vt 0.795117 0.564729
vt 0.826255 0.591583
vt 0.826255 0.616853
vt 0.821996 0.591583
vt 0.821996 0.621280
vt 0.826255 0.633050
vt 0.821996 0.638649
vt 0.795117 0.591583
vt 0.790858 0.569372
vt 0.790858 0.563431
vt 0.795117 0.638649
vt 0.795117 0.595979
vt 0.795117 0.621280
vt 0.790858 0.633050
vt 0.790858 0.616853
vt 0.790858 0.564729
vt 0.790858 0.602722
vt 0.790858 0.595979
vt 0.790858 0.560333
vt 0.824125 0.638649
vt 0.795117 0.526720
vt 0.824125 0.529450
vt 0.821996 0.526720
vt 0.790858 0.532181
vt 0.792988 0.529450
vt 0.792988 0.638649
vt 0.826255 0.532181
vt 0.792988 0.560700
vt 0.790858 0.617425
vt 0.792988 0.623024
vt 0.790858 0.591583
vt 0.768460 0.549148
vt 0.792991 0.549148
vt 0.768939 0.524348
vt 0.789495 0.653400
vt 0.785767 0.659358
vt 0.806122 0.653400
vt 0.817518 0.549148
vt 0.792991 0.524348
vt 0.817039 0.524348
vt 0.840157 0.590845
vt 0.812315 0.590845
vt 0.814336 0.545299
vt 0.058841 0.682479
vt 0.053401 0.682479
vt 0.047958 0.682479
vt 0.037969 0.697393
vt 0.679570 0.633358
vt 0.679570 0.739228
vt 0.682071 0.739228
vt 0.682071 0.633358
vt 0.687072 0.633358
vt 0.687072 0.739228
vt 0.689572 0.633358
vt 0.689572 0.739228
vt 0.049496 0.627833
vt 0.057307 0.627833
vt 0.053405 0.649864
vt 0.053401 0.671953
vt 0.078041 0.643416
vt 0.057307 0.621385
vt 0.068834 0.697398
vt 0.058841 0.660165
vt 0.078041 0.631628
vt 0.068834 0.675084
vt 0.061212 0.627833
vt 0.078041 0.649864
vt 0.058841 0.671953
vt 0.053405 0.643416
vt 0.053401 0.697393
vt 0.047958 0.660165
vt 0.053405 0.631628
vt 0.053401 0.675078
vt 0.045591 0.627833
vt 0.028762 0.649864
vt 0.047958 0.671953
vt 0.028762 0.643416
vt 0.045591 0.621385
vt 0.053401 0.660165
vt 0.028762 0.631628
vt 0.037969 0.675078
vt 0.823855 0.621280
vt 0.795117 0.604571
vt 0.793259 0.621280
vt 0.826255 0.595979
vt 0.839927 0.662381
vt 0.812546 0.662381
vt 0.826236 0.605976
vt 0.811524 0.614128
vt 0.824125 0.623024
vt 0.821996 0.557970
vt 0.068834 0.686872
vt 0.061212 0.609597
vt 0.053401 0.686866
vt 0.049496 0.609597
vt 0.037969 0.686866
s 1
usemtl ranger.001
f 30/1/1 29/2/2 28/3/3
f 18/4/4 9/5/5 8/6/6
f 6/7/7 9/8/5 5/9/8
f 19/10/9 3/11/10 12/12/11
f 5/9/12 3/11/10 6/13/13
f 2/14/14 15/15/15 12/16/16
f 2/14/17 3/17/18 1/18/19
f 4/19/20 39/18/21 1/18/19
f 17/20/22 7/21/23 19/22/24
f 3/17/25 2/14/14 12/16/16
f 56/23/26 13/24/27 33/25/28
f 16/4/29 8/6/6 22/26/30
f 1/18/19 3/17/18 5/9/31
f 3/11/10 19/10/9 7/27/32
f 7/27/32 6/13/13 3/11/10
f 4/19/33 5/9/8 21/28/34
f 10/23/35 34/29/36 31/30/37
f 27/31/38 36/32/39 31/33/37
f 37/34/40 26/35/41 14/36/42
f 4/19/20 1/18/19 5/9/31
f 17/37/43 16/4/29 22/26/30
f 11/38/44 19/10/9 12/12/11
f 34/29/36 32/29/45 30/39/46
f 28/3/47 31/40/37 30/1/48
f 35/41/49 12/12/11 25/42/50
f 27/31/51 28/43/52 25/42/50
f 24/44/53 12/16/16 15/15/15
f 24/44/54 23/45/55 25/46/56
f 24/44/54 44/45/57 23/45/55
f 14/36/42 41/47/42 4/48/33
f 29/2/2 33/49/58 35/50/59
f 25/46/60 12/16/16 24/44/53
f 32/29/45 38/51/61 30/39/46
f 23/45/55 27/31/62 25/46/56
f 25/42/50 29/52/63 35/41/49
f 29/52/63 25/42/50 28/43/52
f 26/53/41 37/54/40 27/31/38
f 18/4/4 10/23/35 9/5/5
f 4/48/33 21/55/34 14/36/42
f 26/53/64 27/31/62 23/45/55
f 33/25/28 38/51/61 32/29/45
f 11/38/44 12/12/11 35/41/49
f 13/56/65 35/50/59 33/49/58
f 19/22/24 13/56/65 17/20/22
f 36/57/39 10/23/35 31/30/37
f 36/57/39 20/58/66 10/23/35
f 16/4/29 17/37/43 56/23/26
f 10/59/67 84/60/68 34/61/36
f 7/21/23 8/62/69 6/7/70
f 37/63/40 20/64/66 36/65/39
f 45/44/71 53/45/72 44/45/57
f 42/66/42 46/67/42 55/67/42
f 40/14/73 47/18/74 48/14/75
f 42/66/42 50/66/42 49/47/42
f 15/15/15 45/44/76 24/44/53
f 14/36/42 46/67/42 42/66/42
f 15/15/15 40/14/77 43/15/78
f 26/53/64 44/45/57 46/68/79
f 50/69/80 51/69/81 47/70/74
f 47/70/74 51/69/82 52/71/83
f 53/72/72 51/69/84 50/69/85
f 53/72/72 54/73/86 52/71/87
f 43/15/78 40/14/77 48/14/88
f 41/74/89 47/18/74 39/18/21
f 43/15/78 52/15/90 54/44/91
f 46/68/79 53/45/72 55/68/92
f 45/44/76 43/15/78 54/44/91
f 52/15/90 43/15/78 48/14/88
f 41/47/42 42/66/42 49/47/42
f 50/66/42 42/66/42 55/67/42
f 21/55/34 37/34/40 14/36/42
f 32/29/45 56/23/26 33/25/28
f 17/37/43 13/24/27 56/23/26
f 16/4/29 18/4/4 8/6/6
f 31/30/37 34/29/36 30/39/46
f 10/23/35 20/58/66 9/5/5
f 2/14/17 39/18/21 40/14/73
f 5/9/8 20/75/66 21/76/34
f 79/77/93 72/78/94 70/79/95
f 75/80/96 136/81/97 138/82/98
f 58/83/99 57/84/100 76/85/100
f 68/86/101 70/79/95 67/87/102
f 63/88/103 68/86/101 61/89/104
f 60/90/105 75/91/106 73/92/107
f 57/93/108 72/78/94 135/94/109
f 68/86/101 57/93/108 58/95/110
f 70/79/95 57/93/108 67/87/102
f 137/96/111 72/97/112 71/98/113
f 60/99/114 62/100/115 61/89/104
f 61/89/104 64/101/116 63/88/103
f 68/86/101 60/99/65 61/89/104
f 65/102/117 137/96/111 71/98/113
f 138/82/118 73/103/65 75/80/65
f 139/104/119 66/105/120 134/106/121
f 60/90/105 73/92/107 74/107/122
f 73/103/114 133/108/123 74/109/124
f 59/110/122 60/90/105 74/107/122
f 75/91/106 58/83/99 76/85/100
f 71/98/113 72/97/112 80/111/125
f 63/112/126 79/113/126 69/114/126
f 63/112/103 64/115/116 77/116/127
f 65/102/117 80/111/128 78/117/128
f 66/105/120 65/102/117 78/117/129
f 70/118/95 69/114/130 79/113/93
f 77/119/131 66/120/132 78/121/133
f 64/101/116 59/122/134 66/120/135
f 83/123/136 85/124/137 87/125/137
f 34/61/36 86/60/138 32/61/45
f 56/59/139 83/126/140 16/127/29
f 10/59/67 81/126/141 82/128/142
f 56/59/139 86/60/138 85/128/143
f 16/127/29 81/126/141 18/127/4
f 85/124/137 86/129/144 87/130/137
f 81/123/145 83/123/145 87/125/145
f 86/129/146 84/129/146 87/131/146
f 84/129/147 82/124/148 87/131/148
f 82/124/148 81/123/149 87/130/148
f 51/69/150 53/72/72 52/71/87
f 55/132/92 53/72/72 50/69/85
f 49/133/151 50/69/80 47/70/74
f 48/134/75 47/70/74 52/71/83
f 96/135/152 94/136/153 95/137/154
f 95/137/154 94/136/153 102/138/155
f 88/139/156 93/140/156 91/141/156
f 90/142/157 93/140/157 88/139/157
f 90/143/158 92/144/158 93/141/158
f 89/145/159 92/144/159 90/143/159
f 89/143/160 91/144/160 92/146/160
f 88/142/161 91/144/161 89/143/161
f 93/147/162 92/148/162 99/149/162
f 94/150/163 97/151/164 91/152/165
f 94/136/153 96/135/152 98/153/166
f 96/154/167 97/155/168 98/156/169
f 92/157/170 91/148/170 97/158/170
f 96/159/167 99/160/171 92/152/172
f 96/135/152 95/137/154 100/161/173
f 95/162/174 99/163/175 100/164/176
f 91/147/177 93/165/177 101/166/177
f 95/167/174 101/168/178 93/169/179
f 94/170/163 101/171/180 102/172/181
f 111/135/182 109/136/183 110/137/184
f 110/137/184 109/136/183 117/138/185
f 103/139/186 108/140/186 106/141/186
f 105/142/187 108/140/187 103/139/187
f 105/143/188 107/144/188 108/141/188
f 104/145/189 107/144/189 105/143/189
f 104/143/190 106/144/190 107/146/190
f 103/142/191 106/144/191 104/143/191
f 108/147/192 107/148/192 114/149/192
f 109/150/193 112/151/194 106/152/195
f 109/136/183 111/135/182 113/153/196
f 111/154/197 112/155/198 113/156/199
f 107/157/200 106/148/200 112/158/200
f 111/159/197 114/160/201 107/152/202
f 111/135/182 110/137/184 115/161/203
f 110/162/204 114/163/205 115/164/206
f 106/147/207 108/165/207 116/166/207
f 110/167/204 116/168/208 108/169/209
f 109/170/193 116/171/210 117/172/211
f 126/135/212 124/136/213 125/137/214
f 125/137/214 124/136/213 132/138/215
f 118/139/216 123/140/216 121/141/216
f 120/142/217 123/140/217 118/139/217
f 120/143/218 122/144/218 123/141/218
f 119/145/219 122/144/219 120/143/219
f 119/143/220 121/144/220 122/146/220
f 118/142/221 121/144/221 119/143/221
f 123/147/222 122/148/222 129/149/222
f 124/150/223 127/151/224 121/152/225
f 124/136/213 126/135/212 128/153/226
f 126/154/227 127/155/228 128/156/229
f 122/157/230 121/148/230 127/158/230
f 126/159/227 129/160/231 122/152/232
f 126/135/212 125/137/214 130/161/233
f 125/162/234 129/163/235 130/164/236
f 121/147/237 123/165/237 131/166/237
f 125/167/234 131/168/238 123/169/239
f 124/170/223 131/171/240 132/172/241
f 136/81/97 137/173/111 138/82/98
f 140/174/118 137/96/111 139/104/119
f 133/108/123 139/175/119 134/106/121
f 59/122/134 134/106/121 66/120/135
f 133/108/123 59/122/134 74/109/124
f 57/93/108 136/81/97 76/176/242
f 30/1/1 38/177/243 29/2/2
f 6/7/7 8/62/244 9/8/5
f 4/19/20 41/74/89 39/18/21
f 17/20/22 22/178/245 7/21/23
f 27/31/38 37/54/40 36/32/39
f 28/3/47 27/31/38 31/40/37
f 24/44/54 45/44/71 44/45/57
f 14/36/42 42/66/42 41/47/42
f 29/2/2 38/177/243 33/49/58
f 13/56/65 11/179/65 35/50/59
f 19/22/24 11/179/65 13/56/65
f 10/59/67 82/128/142 84/60/68
f 7/21/23 22/178/245 8/62/69
f 37/63/40 21/76/34 20/64/66
f 45/44/71 54/44/86 53/45/72
f 40/14/73 39/18/21 47/18/74
f 15/15/15 43/15/78 45/44/76
f 14/36/42 26/35/41 46/67/42
f 15/15/15 2/14/14 40/14/77
f 26/53/64 23/45/55 44/45/57
f 41/74/89 49/74/151 47/18/74
f 46/68/79 44/45/57 53/45/72
f 2/14/17 1/18/19 39/18/21
f 5/9/8 9/180/5 20/75/66
f 79/77/93 80/181/246 72/78/94
f 75/80/96 76/176/242 136/81/97
f 68/86/101 69/182/130 70/79/95
f 63/88/103 69/182/130 68/86/101
f 60/90/105 58/83/99 75/91/106
f 68/86/101 67/87/102 57/93/108
f 70/79/95 72/78/94 57/93/108
f 137/96/111 135/94/109 72/97/112
f 60/99/114 59/122/134 62/100/115
f 61/89/104 62/100/115 64/101/116
f 68/86/101 58/95/65 60/99/65
f 65/102/117 139/104/119 137/96/111
f 138/82/118 140/174/118 73/103/65
f 139/104/119 65/102/117 66/105/120
f 73/103/114 140/174/247 133/108/123
f 63/112/126 77/116/126 79/113/126
f 65/102/117 71/98/113 80/111/128
f 77/119/127 64/101/116 66/120/135
f 64/101/116 62/100/115 59/122/134
f 34/61/36 84/60/68 86/60/138
f 56/59/139 85/128/143 83/126/140
f 10/59/67 18/127/4 81/126/141
f 56/59/139 32/61/45 86/60/138
f 16/127/29 83/126/140 81/126/141
f 94/150/163 98/183/248 97/151/164
f 96/154/167 92/184/172 97/155/168
f 96/159/167 100/185/249 99/160/171
f 95/162/174 93/186/179 99/163/175
f 95/167/174 102/187/250 101/168/178
f 94/170/163 91/186/165 101/171/180
f 109/150/193 113/183/251 112/151/194
f 111/154/197 107/184/202 112/155/198
f 111/159/197 115/185/252 114/160/201
f 110/162/204 108/186/209 114/163/205
f 110/167/204 117/187/253 116/168/208
f 109/170/193 106/186/195 116/171/210
f 124/150/223 128/183/254 127/151/224
f 126/154/227 122/184/232 127/155/228
f 126/159/227 130/185/255 129/160/231
f 125/162/234 123/186/239 129/163/235
f 125/167/234 132/187/256 131/168/238
f 124/170/223 121/186/225 131/171/240
f 136/81/97 135/94/109 137/173/111
f 140/174/118 138/82/118 137/96/111
f 133/108/123 140/174/247 139/175/119
f 133/108/123 134/106/121 59/122/134
f 57/93/108 135/94/109 136/81/97
